<?xml version="1.0" standalone="no"?>
<!DOCTYPE svg PUBLIC "-//W3C//DTD SVG 20010904//EN"
 "http://www.w3.org/TR/2001/REC-SVG-20010904/DTD/svg10.dtd">
<svg version="1.0" xmlns="http://www.w3.org/2000/svg"
 width="448.000000pt" height="600.000000pt" viewBox="0 0 448.000000 600.000000"
 preserveAspectRatio="xMidYMid meet">
<g transform="translate(0.000000,600.000000) scale(0.050000,-0.050000)"
fill="#000000" stroke="none">
<path d="M4464 10554 c-33 -35 -60 -44 -110 -38 -53 6 -83 -7 -152 -64 -101
-85 -77 -81 -195 -31 -113 49 -174 39 -220 -36 -60 -97 -154 -185 -197 -185
-63 0 -149 -45 -161 -85 -8 -22 -32 -35 -68 -35 -69 0 -99 -33 -109 -122 -4
-37 -9 -74 -10 -82 -1 -8 -36 -30 -77 -48 -130 -60 -145 -82 -146 -216 0 -94
-12 -140 -50 -202 -33 -54 -49 -109 -49 -171 0 -50 -10 -101 -22 -113 -16 -16
-16 -41 1 -94 25 -75 10 -122 -39 -122 -16 0 -33 -22 -37 -48 -9 -62 78 -282
112 -282 14 0 25 -10 25 -22 0 -12 -14 -17 -32 -10 -17 7 -40 12 -50 12 -10 0
-17 7 -15 15 2 8 -3 40 -12 71 -23 81 -61 54 -59 -43 1 -46 -6 -83 -15 -83
-46 0 -7 -56 74 -108 68 -42 88 -66 77 -90 -83 -194 -82 -285 1 -384 28 -34
51 -82 51 -107 0 -39 48 -116 141 -226 25 -31 99 -33 99 -3 0 12 28 -2 62 -30
94 -79 177 -71 97 9 -77 77 -7 130 78 59 48 -41 47 -177 -2 -147 -12 7 -15 4
-8 -7 7 -12 44 -36 83 -55 72 -34 108 -243 52 -302 -10 -11 -11 -62 -3 -116
17 -110 -6 -147 -142 -230 -41 -24 -102 -89 -138 -144 -60 -94 -367 -399 -402
-399 -8 0 -203 -86 -431 -192 -229 -105 -524 -230 -656 -277 -240 -87 -533
-208 -633 -262 -29 -16 -66 -29 -82 -29 -55 0 -115 -94 -153 -242 -21 -82 -67
-242 -102 -356 -54 -172 -63 -228 -55 -339 8 -114 1 -154 -50 -283 -51 -131
-57 -167 -47 -280 12 -133 -3 -197 -106 -480 -25 -66 -41 -162 -42 -240 -2
-237 -115 -864 -187 -1030 -90 -208 -45 -1186 64 -1420 86 -184 390 -494 518
-529 148 -40 448 67 639 228 73 61 405 271 429 271 6 0 -1 -56 -15 -125 -15
-69 -45 -224 -68 -345 -23 -121 -47 -240 -53 -265 -11 -42 -5 -45 79 -45 98 0
99 0 123 146 7 41 22 70 32 63 10 -6 19 -2 19 9 0 11 12 16 26 11 14 -6 26 5
27 26 1 19 12 115 25 213 14 106 17 183 6 190 -10 7 -25 32 -33 57 -7 25 -23
45 -34 45 -10 0 -14 8 -8 18 6 9 -5 16 -24 15 -23 -2 -34 10 -32 36 14 152
-219 104 -553 -113 -93 -61 -190 -117 -215 -125 -25 -8 -40 -22 -34 -32 6 -11
4 -20 -5 -21 -9 -1 -34 -5 -56 -8 -211 -38 -203 -39 -309 37 -56 40 -110 73
-121 73 -11 0 -20 11 -20 25 0 14 -25 52 -56 85 -30 33 -52 76 -48 95 5 24 -2
31 -23 23 -22 -8 -37 11 -55 70 -13 44 -31 76 -39 71 -8 -5 -11 9 -5 31 6 23
1 40 -12 40 -14 0 -18 20 -11 55 9 42 7 48 -9 25 -18 -25 -21 -23 -22 13 0 24
10 47 22 51 16 5 18 36 7 97 -14 79 -17 84 -30 39 -8 -27 -16 -36 -17 -18 -4
71 82 350 145 470 69 130 68 169 -3 79 -21 -27 -45 -43 -52 -36 -8 8 -9 0 -2
-18 8 -20 -6 -43 -39 -64 -27 -19 -68 -67 -90 -108 -46 -88 -54 -55 -12 46 45
108 198 295 294 359 48 32 91 62 96 65 6 4 -3 15 -19 25 -16 10 -25 21 -19 26
38 31 202 94 250 95 51 2 54 4 19 19 -33 14 -27 17 31 19 39 0 111 20 160 44
53 26 131 44 192 45 57 1 110 9 119 17 36 37 91 16 77 -30 -8 -25 -21 -49 -29
-55 -27 -18 -60 -162 -70 -300 -3 -49 -11 -150 -18 -224 -6 -77 -3 -139 8
-146 11 -7 11 -30 -1 -62 -10 -28 -18 -66 -17 -84 1 -27 3 -28 11 -4 5 17 18
48 27 70 20 44 48 238 90 600 15 132 36 265 48 295 15 39 15 55 -1 55 -14 0
-13 10 3 30 14 17 30 26 36 21 5 -6 52 21 105 59 124 92 200 91 99 0 -44 -40
-50 -103 -20 -213 39 -138 -4 -175 -61 -53 l-49 106 -6 -140 c-8 -159 30 -369
68 -383 52 -21 20 -98 -37 -89 -8 1 -15 -21 -15 -48 0 -28 -8 -50 -18 -50 -10
0 -13 -20 -6 -45 10 -39 15 -35 34 34 37 128 63 107 79 -63 37 -416 92 -362
90 88 -2 674 8 948 36 1002 41 80 73 105 55 44 -8 -27 34 24 93 114 67 102
133 179 177 204 74 42 167 115 265 207 32 30 64 55 72 55 8 0 74 56 146 125
164 156 257 234 257 218 1 -7 18 9 39 37 29 38 40 43 47 20 29 -107 64 -186
157 -353 57 -104 114 -185 126 -180 11 4 22 -12 24 -36 3 -52 99 -211 127
-211 11 0 20 -14 20 -31 0 -35 54 -146 88 -179 32 -33 180 -210 195 -236 20
-30 77 21 77 68 0 21 9 38 19 38 18 0 -21 136 -54 186 -8 14 -19 -24 -25 -86
l-10 -110 -33 65 c-28 54 -29 65 -5 65 76 0 20 110 -211 410 -85 110 -180 245
-212 300 -32 55 -83 135 -113 178 -72 100 -71 154 4 239 33 38 84 121 113 186
29 64 91 176 137 247 46 72 94 159 106 194 13 39 122 163 281 320 236 233 258
261 248 313 -20 106 96 110 123 5 11 -47 15 -48 69 -21 109 55 130 95 82 156
-26 32 -37 68 -30 91 10 31 -6 48 -78 84 -88 43 -116 86 -68 102 13 5 -12 8
-55 8 -81 0 -83 -2 -239 -174 -90 -101 -102 -125 -54 -110 65 21 135 -132 72
-156 -15 -6 -27 -28 -27 -49 0 -113 -110 -68 -124 51 -3 31 -15 59 -26 62 -31
9 -36 -73 -10 -167 20 -72 19 -95 -10 -157 -44 -92 -59 -91 -109 13 -23 47
-37 69 -32 50 5 -19 15 -78 22 -132 l13 -97 -60 9 c-52 8 -62 2 -67 -38 -6
-37 -21 -48 -73 -53 -66 -7 -94 -145 -37 -186 9 -7 -4 -35 -30 -62 -90 -95
-117 -137 -117 -185 0 -26 -14 -62 -30 -78 -17 -17 -30 -39 -30 -49 0 -11 -13
-30 -30 -44 -16 -13 -25 -33 -19 -42 12 -19 -46 -50 -62 -33 -6 5 -47 98 -92
207 -45 109 -122 293 -171 408 -49 116 -98 242 -109 280 -12 39 -28 79 -36 90
-8 11 -30 65 -49 120 -20 55 -50 129 -67 163 -28 56 -29 68 -4 99 24 28 24 33
1 25 -15 -5 -45 -40 -68 -78 l-40 -70 49 -80 c27 -43 66 -124 86 -179 20 -55
67 -166 104 -246 37 -81 67 -151 67 -157 0 -5 45 -104 100 -219 55 -115 100
-214 100 -220 0 -6 23 -60 50 -121 50 -108 51 -147 4 -147 -14 0 -33 -20 -44
-45 -11 -25 -33 -46 -50 -47 -70 -5 -82 -9 -70 -28 11 -18 -16 -29 -56 -22
-10 2 -11 -6 -4 -18 13 -21 -34 -80 -65 -80 -10 0 -30 -22 -44 -48 -15 -28
-38 -44 -54 -38 -16 6 -27 -3 -27 -21 0 -37 -79 -96 -106 -79 -11 7 -14 2 -7
-10 20 -32 -29 -53 -50 -22 -15 21 -18 18 -13 -12 7 -40 -47 -110 -85 -110
-11 0 -25 -13 -32 -30 -6 -16 -24 -30 -40 -30 -16 0 -24 -8 -18 -18 6 -9 -7
-22 -28 -28 -22 -5 -57 -39 -79 -76 -32 -52 -43 -59 -53 -33 -17 43 -65 23
-73 -31 -3 -24 -23 -47 -45 -51 -21 -4 -54 -27 -74 -50 -47 -56 -76 -18 -77
101 0 47 -11 95 -25 108 -17 16 -24 83 -22 216 3 126 -1 168 -11 122 -12 -55
-18 -63 -31 -35 -8 19 -23 30 -33 24 -10 -6 -18 2 -18 18 0 47 -49 127 -73
119 -12 -4 -35 4 -50 18 -51 49 -269 131 -290 110 -5 -6 -35 -3 -65 5 -40 12
-68 7 -102 -19 -52 -39 -88 -34 -151 23 -22 20 -70 42 -106 49 -44 9 -63 23
-59 44 8 42 46 51 79 19 40 -40 103 -61 89 -30 -7 14 -18 41 -24 60 -7 19 -22
35 -33 35 -37 0 -74 68 -51 95 27 32 -8 33 -41 0 -36 -36 -64 18 -53 103 16
126 61 131 51 7 -3 -32 7 -45 34 -45 37 0 95 -64 177 -197 42 -67 62 -67 59 2
0 19 -10 36 -21 38 -11 1 -32 30 -46 64 -14 34 -32 66 -40 72 -29 21 -84 120
-84 150 0 44 22 39 84 -19 52 -48 96 -65 96 -37 0 7 -16 25 -35 40 -31 25 -29
26 22 15 53 -12 55 -11 31 27 -14 23 -35 37 -48 32 -34 -13 -146 156 -169 255
-22 98 -28 272 -8 252 19 -19 86 -218 86 -259 1 -42 41 -48 41 -6 0 16 20 42
44 59 l43 31 -43 38 c-24 21 -44 44 -44 51 0 8 -20 40 -44 73 -34 46 -38 65
-20 83 19 19 24 17 24 -7 0 -18 31 -53 70 -79 38 -27 70 -63 70 -82 0 -36 35
-68 54 -49 14 14 -90 217 -122 238 -12 8 -15 15 -6 15 9 0 2 20 -15 44 -17 25
-31 75 -31 111 l0 67 48 -36 c27 -20 47 -40 46 -46 -6 -35 35 -144 63 -165 60
-46 89 -114 53 -128 -51 -19 -37 -72 15 -56 63 20 104 89 53 89 -13 0 -18 17
-13 38 6 22 -6 51 -29 71 -29 25 -37 51 -30 101 5 38 0 71 -12 75 -19 7 -23
253 -4 271 16 17 94 -166 191 -449 192 -557 239 -708 239 -766 0 -24 13 -62
29 -87 34 -52 11 -106 -37 -87 -18 6 -31 19 -30 27 7 44 -4 86 -23 86 -12 0
-16 -9 -9 -20 6 -10 2 -37 -10 -60 -16 -31 -15 -40 5 -40 35 0 90 -66 79 -97
-4 -14 11 -41 34 -61 23 -20 42 -56 42 -79 0 -24 10 -43 22 -43 14 0 19 22 12
55 -13 71 40 5 60 -75 14 -56 59 -108 73 -85 13 21 2 134 -15 162 -8 13 -12
53 -9 88 4 44 -2 63 -19 60 -14 -3 -30 22 -37 55 -7 33 -20 60 -29 60 -10 0
-18 10 -18 21 0 12 11 15 25 6 19 -11 20 -8 3 14 -13 16 -22 45 -22 64 0 19
-10 68 -22 110 -56 186 -91 316 -88 329 2 7 -10 38 -25 68 -16 30 -24 63 -19
72 6 9 1 16 -11 16 -11 0 -21 23 -21 50 0 28 -7 50 -15 50 -29 0 -95 146 -88
195 4 29 -2 44 -13 37 -11 -6 -25 2 -31 18 -8 20 1 30 28 30 21 0 39 9 39 19
0 11 -13 15 -28 9 -15 -6 -34 -1 -41 11 -8 12 -22 16 -32 10 -11 -6 -19 3 -19
21 0 18 -8 27 -18 21 -10 -6 -14 7 -8 29 6 22 -1 54 -15 72 -22 26 -22 34 2
48 15 10 22 24 15 31 -26 26 32 67 61 43 18 -15 30 -15 40 0 16 27 163 89 163
70 0 -8 9 0 20 16 17 27 19 27 20 0 0 -18 7 -22 15 -10 23 31 89 63 161 79 35
8 59 23 53 33 -6 10 -2 19 10 21 11 1 28 4 36 6 8 2 42 12 75 20 33 9 94 33
135 54 41 21 81 36 90 35 40 -7 52 5 25 24 -23 16 -14 19 36 10 36 -6 61 -4
56 5 -10 16 212 130 240 123 7 -2 21 8 30 23 30 48 46 -3 22 -70 -44 -121 -34
-139 114 -217 93 -48 145 -65 158 -52 44 44 69 -8 59 -122 -8 -110 -8 -111 19
-46 47 115 -9 244 -106 244 -25 0 -51 8 -56 18 -6 9 -52 27 -102 40 -85 21
-117 63 -72 91 11 6 34 56 52 110 35 106 90 174 90 111 0 -26 7 -29 25 -14 14
11 32 21 40 22 8 1 22 3 30 4 8 2 31 1 50 -1 20 -2 35 10 35 27 0 65 47 128
107 145 48 14 65 32 73 78 18 104 67 72 89 -59 20 -113 52 -159 80 -113 8 12
-1 21 -18 21 -20 0 -31 18 -31 54 0 150 161 -225 250 -584 66 -263 134 -410
190 -410 26 0 35 10 27 30 -6 17 3 52 21 79 40 62 40 62 -5 62 -27 0 -34 -10
-27 -40 10 -40 9 -40 -30 -5 -27 24 -37 51 -31 86 8 39 1 53 -32 61 -47 13
-54 107 -9 107 14 0 26 10 26 22 0 12 -13 17 -28 11 -38 -14 -52 28 -53 164
-1 90 -5 104 -20 67 -26 -66 -58 -36 -46 43 7 42 1 76 -17 95 -15 15 -27 55
-25 88 2 33 -7 74 -20 90 -73 91 -90 313 -37 481 l33 109 12 -80 c7 -45 46
-141 88 -215 45 -81 65 -135 50 -135 -18 0 -19 -6 -3 -22 13 -13 18 -35 12
-50 -6 -16 0 -28 12 -28 12 0 22 13 22 29 0 16 9 34 20 41 12 7 19 2 15 -12
-3 -14 12 -29 32 -34 24 -5 33 0 24 14 -23 38 21 24 59 -18 20 -22 46 -40 59
-40 27 0 80 -61 83 -95 5 -63 11 -69 58 -60 28 5 50 2 50 -7 0 -9 12 -12 26
-7 15 6 39 -12 53 -40 15 -28 45 -56 66 -62 21 -7 33 -24 27 -40 -6 -16 0 -23
15 -17 62 24 99 -65 44 -108 l-51 -40 198 -2 c314 -5 424 -52 394 -171 -12
-46 -22 -54 -65 -46 -45 9 -50 4 -42 -37 10 -52 -49 -71 -77 -25 -9 15 -26 6
-50 -25 -50 -64 -47 -78 13 -78 82 0 187 -54 212 -109 18 -39 38 -51 87 -51
72 0 140 -61 160 -143 15 -61 1 -77 -177 -213 -62 -48 -113 -95 -113 -105 0
-41 65 -15 178 71 137 104 201 113 261 37 81 -103 58 -168 -95 -273 -151 -103
-238 -187 -217 -208 18 -18 147 28 218 78 74 52 156 40 194 -28 44 -79 10
-150 -115 -237 -59 -41 -136 -103 -173 -138 -63 -61 -97 -76 -176 -79 -19 -1
-35 -12 -35 -24 0 -13 18 -18 40 -12 61 16 49 -9 -55 -111 -251 -247 -420
-355 -552 -355 -42 0 -70 -8 -64 -18 17 -28 -166 -127 -212 -115 -25 6 -44 -2
-52 -24 -6 -18 -38 -66 -69 -107 -56 -71 -56 -75 -22 -115 52 -60 103 -51 136
24 16 36 30 52 32 35 5 -50 -5 -109 -22 -130 -20 -26 12 -110 42 -110 16 0 20
26 13 79 -8 58 -3 81 19 90 17 6 26 30 23 58 -7 52 37 119 65 102 10 -6 18
-36 18 -65 0 -30 9 -67 20 -84 14 -22 19 -3 20 66 0 132 47 222 101 193 32
-17 39 -38 35 -107 -4 -53 5 -100 24 -124 28 -35 27 -36 -5 -11 -32 26 -34 23
-23 -32 7 -33 1 -81 -12 -106 l-25 -46 -37 49 c-34 44 -51 33 -40 -29 13 -70
6 -279 -9 -290 -24 -17 -30 -86 -7 -72 10 6 20 -32 21 -85 l4 -96 8 90 c19
217 105 178 112 -50 3 -104 20 -150 46 -124 7 7 1 27 -12 43 -21 25 -19 44 8
101 30 64 103 104 80 43 -19 -47 27 -133 71 -133 22 0 40 -12 40 -28 0 -29
-59 -51 -135 -52 -53 0 -56 -12 -15 -53 17 -16 30 -59 30 -95 0 -68 100 -232
141 -232 12 0 17 -7 11 -17 -6 -9 10 -15 34 -13 24 2 49 -4 55 -13 12 -18 23
-21 179 -47 75 -13 83 -19 50 -33 -28 -13 -15 -15 45 -9 47 4 90 0 96 -10 6
-10 38 -18 71 -18 33 0 93 -15 134 -33 41 -18 85 -35 98 -38 62 -13 179 -56
201 -74 14 -11 25 -14 25 -6 0 8 13 1 29 -15 20 -20 60 -27 125 -22 53 4 171
11 263 16 93 6 173 15 179 21 18 18 104 12 104 -7 0 -86 134 -42 246 79 103
113 121 124 155 103 46 -29 59 -30 59 -6 0 10 -22 23 -50 30 -51 13 -65 49
-32 83 21 22 66 466 50 492 -6 10 -15 41 -20 70 -5 29 -24 80 -42 115 -30 57
-30 60 0 35 102 -84 193 -456 165 -673 -18 -139 -93 -350 -125 -350 -14 0 -25
-7 -24 -15 8 -48 -6 -83 -37 -91 -33 -9 -33 -9 0 -12 49 -3 45 -92 -7 -144
-23 -23 -37 -46 -32 -51 13 -13 90 36 100 62 5 12 4 -1 -1 -29 -4 -27 -15 -54
-24 -60 -8 -5 -27 -44 -42 -85 -15 -41 -34 -75 -43 -75 -9 0 -16 -9 -16 -20 0
-11 14 -20 31 -20 17 0 26 -9 20 -19 -7 -11 -25 -14 -42 -8 -49 19 -33 -46 20
-81 57 -37 79 -41 61 -12 -18 29 14 24 57 -9 35 -27 36 -238 2 -406 -6 -25 -1
-45 11 -45 11 0 21 20 22 45 2 39 26 -41 44 -145 2 -16 15 -49 28 -72 13 -23
26 -79 29 -125 l5 -83 103 0 104 0 -28 115 c-28 114 -110 709 -99 720 12 12
147 -46 231 -99 144 -91 294 -137 519 -158 117 -10 284 -28 373 -39 363 -43
454 -15 638 197 191 219 264 495 212 806 -14 81 -32 216 -41 299 -11 112 -34
188 -88 294 -39 79 -72 167 -72 195 0 82 -73 266 -158 398 -105 162 -137 246
-184 472 -48 238 -105 413 -188 580 -35 72 -70 171 -78 220 -7 50 -44 185 -82
300 -38 116 -77 265 -88 331 -10 67 -50 207 -89 310 -39 104 -80 246 -91 316
-28 173 -73 244 -183 285 -49 18 -165 64 -259 103 -93 38 -246 94 -340 125
-93 31 -221 81 -282 112 -121 60 -655 284 -738 309 -59 17 -256 148 -303 202
-32 35 -31 43 13 137 43 92 74 186 189 583 22 79 41 169 41 201 0 32 18 126
40 207 47 180 50 302 10 494 -29 139 -29 149 10 224 49 97 50 158 6 251 -29
60 -30 81 -9 140 31 85 27 269 -8 395 -23 81 -23 95 1 95 17 0 24 12 17 30 -6
16 12 57 41 91 29 34 53 84 55 111 2 49 8 84 16 93 3 3 7 37 10 75 8 105 12
114 31 70 16 -38 17 -38 19 5 0 25 -7 45 -16 45 -10 0 -27 43 -38 95 -26 129
-33 153 -45 165 -6 6 -19 36 -30 68 -24 70 -52 86 -176 102 -90 12 -114 27
-191 120 -15 18 -39 28 -53 23 -15 -6 -32 3 -38 19 -7 19 -3 25 11 16 13 -8
19 -3 14 12 -5 15 -31 30 -58 34 -59 9 -102 46 -53 46 19 0 34 8 34 19 0 33
-102 99 -133 87 -28 -11 -28 -14 1 -30 71 -40 -36 -176 -137 -176 -43 0 -1 84
54 108 36 16 51 29 34 30 -16 1 -51 -13 -77 -31 -50 -35 -102 -2 -102 65 0 66
-154 100 -249 54 -71 -33 -71 -33 -136 26 -122 114 -223 135 -291 62z m136
-13 c0 -31 -38 -44 -83 -30 -33 10 -36 17 -15 31 37 23 98 23 98 -1z m103 -32
c33 -18 57 -36 52 -41 -14 -14 -135 34 -135 54 0 25 13 23 83 -13z m-813 -109
c-7 -11 1 -14 19 -8 17 7 56 5 86 -4 50 -14 45 -17 -45 -27 -128 -15 -163 -5
-116 31 42 32 74 36 56 8z m1087 -53 c-15 -18 -38 -56 -51 -85 l-24 -52 12 60
c13 67 41 110 71 110 11 0 8 -15 -8 -33z m-707 -7 c-16 -26 36 -26 63 1 22 22
87 6 87 -22 0 -28 -42 -45 -123 -47 -67 -2 -77 4 -77 43 0 27 12 45 31 45 17
0 26 -9 19 -20z m391 -43 c59 -31 75 -47 56 -59 -22 -13 -21 -23 6 -50 34 -33
88 -22 65 15 -6 10 -5 44 3 73 l15 54 14 -50 14 -50 23 55 c24 61 43 71 43 25
0 -17 -18 -46 -40 -65 -22 -18 -40 -46 -40 -60 0 -38 -104 -83 -115 -50 -6 17
-21 10 -46 -20 -23 -28 -38 -35 -38 -18 -1 16 -14 22 -32 15 -17 -6 -35 1 -41
16 -6 15 -27 23 -48 18 -42 -11 -32 -66 11 -66 15 0 38 -19 50 -42 20 -38 18
-40 -22 -28 -34 11 -40 8 -28 -13 14 -22 11 -22 -17 0 -29 24 -34 23 -34 -6 0
-36 168 -27 209 11 27 25 56 22 40 -3 -7 -12 2 -38 21 -59 44 -48 26 -76 -45
-68 -33 4 -39 2 -15 -5 90 -26 126 -107 48 -107 -34 0 -38 6 -20 28 18 21 16
30 -9 40 -48 18 -73 15 -59 -8 7 -11 -2 -20 -19 -20 -17 0 -31 -7 -30 -15 1
-26 59 -94 59 -69 0 48 31 22 69 -58 33 -69 35 -83 10 -99 -21 -13 -31 -8 -35
17 -15 84 -24 93 -57 59 -32 -32 -20 -85 14 -64 11 6 19 -3 19 -20 0 -17 9
-31 20 -31 11 0 20 -20 20 -45 0 -40 -5 -37 -40 21 -23 36 -48 61 -58 55 -23
-14 -69 42 -54 65 14 23 -61 104 -97 104 -30 0 -59 -90 -39 -123 7 -11 34 -15
60 -8 27 7 48 3 48 -9 0 -11 -19 -20 -41 -20 -23 0 -36 -9 -29 -20 7 -11 40
-20 75 -20 78 0 67 -11 -32 -29 -42 -7 -72 -6 -67 3 5 9 -3 28 -18 42 -23 21
-28 21 -29 0 0 -17 -9 -14 -27 9 -29 38 -55 27 -38 -17 5 -15 0 -28 -12 -28
-31 0 -27 33 9 89 17 26 32 86 33 134 3 79 40 157 77 157 28 0 39 -63 18 -101
-18 -35 -13 -39 42 -39 46 0 60 8 53 28 -6 15 -1 37 11 49 57 57 24 152 -36
102 -16 -13 -60 -25 -98 -27 -41 -1 -87 -20 -117 -48 -45 -43 -51 -44 -82 -13
-18 18 -47 28 -64 21 -17 -7 -25 -3 -18 8 7 11 -2 20 -19 20 -18 0 -40 -22
-51 -50 -12 -33 -29 -45 -49 -37 -23 8 -31 -2 -31 -37 0 -26 -11 -59 -24 -72
-19 -19 -18 -30 3 -49 20 -19 28 -20 35 -1 10 28 86 -9 86 -41 0 -10 -15 -6
-33 10 -29 23 -32 23 -24 -3 6 -16 28 -31 49 -33 21 -1 54 -9 73 -17 50 -20
44 -4 -25 70 -70 75 -77 120 -18 120 29 0 39 9 31 30 -9 23 3 30 50 30 51 0
59 -6 46 -35 -9 -19 -15 -62 -14 -95 1 -33 -3 -48 -9 -33 -9 22 -14 22 -27 2
-9 -15 -1 -47 18 -77 19 -28 22 -44 8 -35 -25 16 -33 -5 -26 -72 4 -43 -25
-45 -59 -5 -37 45 -65 36 -39 -12 16 -30 16 -39 1 -29 -12 7 -22 4 -22 -7 0
-11 -15 -15 -33 -8 -23 9 -29 5 -19 -11 9 -14 2 -23 -18 -23 -19 0 -27 -9 -18
-23 10 -16 -2 -19 -42 -9 -45 12 -53 8 -43 -18 7 -18 5 -28 -3 -22 -9 5 -25
-6 -37 -24 -31 -50 75 -46 131 4 45 41 58 19 17 -28 -14 -16 -5 -12 19 8 31
25 63 34 101 26 38 -8 72 1 105 27 28 21 67 38 87 39 26 0 34 10 25 32 -14 36
126 23 149 -14 6 -10 35 -16 64 -14 50 4 51 7 21 40 -30 33 -30 36 1 36 18 0
33 -7 33 -15 0 -19 104 -68 116 -55 6 5 -5 15 -23 22 -49 18 -40 53 10 37 31
-10 38 -7 26 12 -11 19 -6 22 23 11 67 -27 188 -35 188 -13 0 12 -9 21 -20 21
-11 0 -20 14 -20 31 0 24 8 26 38 10 28 -15 42 -14 49 4 5 14 11 8 11 -13 2
-34 6 -35 37 -10 19 16 53 27 75 26 135 -8 130 -4 117 -68 -12 -59 -10 -60 71
-60 45 0 82 9 82 20 0 11 27 20 60 20 33 0 60 -10 60 -21 0 -13 17 -16 43 -8
28 9 38 6 28 -9 -8 -13 -2 -17 15 -11 37 14 214 -145 214 -192 0 -19 12 -39
27 -45 31 -12 66 -136 84 -301 14 -134 -35 -137 -105 -7 -33 61 -35 62 -42 17
-5 -30 -17 -42 -36 -35 -20 8 -28 -5 -28 -46 0 -66 81 -162 137 -162 45 0 99
-57 72 -77 -11 -7 -22 -26 -26 -43 -11 -53 -42 -75 -122 -88 -44 -7 -87 -26
-97 -44 -10 -17 -50 -34 -90 -38 -40 -4 -93 -21 -118 -38 -50 -36 -105 -43
-86 -12 8 12 -28 20 -94 20 -80 0 -115 10 -139 37 -23 27 -73 41 -179 52 -81
8 -156 20 -168 27 -68 43 -370 29 -370 -17 0 -9 -18 -22 -41 -29 -22 -7 -57
-31 -77 -52 -20 -22 -63 -42 -94 -44 -87 -6 -161 -142 -82 -150 13 -1 82 -15
153 -31 72 -17 138 -25 149 -18 11 6 13 -3 6 -22 -16 -42 6 -106 25 -74 10 16
44 14 122 -6 94 -24 117 -24 165 1 66 33 62 73 -8 82 -183 23 -219 74 -100
140 100 57 99 57 106 -31 l6 -75 120 -6 c141 -7 162 -30 108 -118 l-41 -65 54
28 c30 15 64 49 77 74 58 116 130 32 89 -104 -18 -62 -28 -70 -75 -64 -55 9
-60 -1 -63 -120 -1 -25 -11 -106 -23 -181 -27 -163 -11 -189 120 -197 101 -6
113 -17 74 -69 -21 -28 -29 -30 -29 -9 -1 18 -25 4 -64 -36 -42 -43 -68 -57
-78 -42 -10 17 -18 17 -28 1 -9 -15 -34 -13 -84 8 -79 33 -207 -56 -207 -145
0 -21 -6 -45 -14 -53 -8 -7 -12 -47 -9 -89 4 -54 -6 -85 -35 -111 -23 -21 -36
-45 -30 -55 6 -9 -4 -23 -21 -29 -33 -13 -44 -108 -12 -108 47 0 81 -68 81
-163 0 -54 8 -94 18 -88 10 6 13 30 7 53 -10 38 -7 40 31 16 35 -22 40 -41 32
-107 -10 -81 24 -168 45 -116 15 36 47 31 47 -7 0 -24 13 -30 50 -23 104 20
51 -43 -180 -217 -224 -168 -258 -171 -423 -37 -64 52 -125 111 -135 132 -10
20 -24 37 -32 37 -8 0 -47 31 -87 69 -40 37 -73 64 -73 60 0 -20 -109 88 -172
171 -37 50 -100 129 -138 177 -80 98 -106 345 -40 370 17 7 30 4 30 -5 0 -17
114 -142 130 -142 6 0 10 14 10 30 0 17 -7 30 -15 30 -8 0 -26 25 -40 54 -19
40 -19 48 -1 30 13 -13 40 -24 60 -24 40 0 120 -70 101 -88 -18 -18 22 -14 52
6 20 12 21 21 4 31 -29 18 10 71 53 71 24 0 23 5 -3 32 -26 26 -38 27 -62 7
-17 -14 -36 -19 -43 -12 -7 7 -2 13 12 13 16 0 11 18 -15 50 -24 31 -35 67
-28 93 9 33 5 39 -17 27 -18 -10 -16 -3 5 20 43 45 84 20 71 -44 -6 -31 1 -53
20 -60 33 -13 81 26 59 48 -9 8 -24 2 -34 -15 -13 -21 -18 -8 -19 46 0 54 -9
75 -31 75 -17 0 -26 9 -18 21 9 15 21 14 39 -1 14 -12 38 -19 53 -16 17 4 31
-22 39 -74 7 -44 14 -60 15 -37 2 24 14 48 28 54 18 8 16 18 -9 38 -32 27 -37
120 -8 150 23 23 51 -42 39 -90 -8 -33 -3 -45 21 -45 31 0 40 -22 33 -75 -1
-14 8 -25 22 -25 20 0 20 -5 0 -25 -16 -16 -30 -17 -39 -5 -37 52 -64 29 -34
-29 28 -56 28 -63 -7 -98 -27 -27 -32 -47 -19 -66 15 -21 21 -21 29 -2 15 37
47 30 49 -10 0 -19 11 -7 25 29 28 77 53 105 53 59 0 -18 9 -33 21 -33 14 0
13 14 -2 41 -17 32 -28 36 -49 19 -19 -16 -30 -16 -40 0 -18 29 4 86 28 71 10
-6 24 13 31 41 23 91 99 3 83 -96 -14 -84 20 -124 40 -47 14 60 48 68 48 13 0
-44 66 -37 124 13 29 25 30 34 7 57 -40 40 -64 35 -80 -17 -8 -25 -18 -35 -24
-21 -5 13 0 42 12 64 30 56 26 102 -9 102 -16 0 -30 -16 -30 -35 -1 -29 -4
-30 -19 -6 -12 19 -8 36 13 52 38 27 18 72 -25 56 -24 -10 -26 -2 -10 40 12
33 13 56 0 63 -10 7 -19 -2 -19 -19 0 -41 -32 -40 -48 2 -7 18 -18 27 -25 21
-17 -17 -67 38 -67 74 0 23 -16 29 -60 24 -35 -4 -60 3 -60 16 0 12 -34 58
-77 102 -42 44 -82 97 -90 118 -8 21 -20 32 -28 24 -15 -15 -90 181 -86 228 1
17 5 98 9 182 4 83 16 169 28 190 11 21 16 62 10 90 -6 35 10 79 53 143 62 92
70 96 245 126 40 7 78 25 84 41 6 17 24 22 46 14 32 -12 33 -9 9 20 -18 22
-20 34 -5 34 12 0 23 16 23 35 1 27 6 24 20 -10 22 -56 46 -60 29 -5 -9 29 -4
40 21 40 21 0 29 -11 22 -30 -7 -18 -1 -30 15 -30 15 0 33 -13 39 -30 17 -43
-6 -89 -37 -77 -14 5 -31 1 -38 -10 -7 -11 6 -26 28 -33 24 -8 35 -22 26 -36
-7 -13 2 -11 21 4 19 16 72 32 118 37 47 4 89 16 96 26 15 25 121 3 161 -33
36 -32 106 -17 84 19 -8 13 2 11 20 -4 30 -25 34 -22 34 22 0 50 -43 105 -65
83 -7 -7 -8 -27 -3 -45 5 -18 -1 -13 -14 12 -26 48 -58 60 -58 22 0 -13 -6
-18 -13 -11 -7 7 -2 26 12 43 14 16 20 41 14 55 -6 16 -10 13 -11 -9 -1 -19
-10 -35 -21 -35 -10 0 -24 -19 -32 -43 -10 -30 -18 -35 -29 -17 -9 14 -26 19
-38 11 -12 -7 -22 -6 -22 3 0 9 -29 29 -65 44 -36 16 -90 45 -120 67 -30 21
-55 31 -55 22 0 -9 -14 4 -31 29 -36 51 -69 58 -69 14 0 -19 -19 -30 -50 -30
-37 0 -50 -11 -50 -41 0 -23 -9 -36 -20 -29 -11 7 -20 3 -20 -9 0 -11 -7 -21
-17 -21 -9 0 -16 14 -16 30 0 17 12 30 26 30 15 0 27 8 27 18 0 27 -82 0 -94
-31 -6 -15 -20 -27 -32 -27 -15 0 -14 8 2 24 37 37 29 51 -26 41 -41 -8 -48
-3 -38 24 7 18 24 29 36 24 13 -4 23 7 23 26 0 30 -179 -40 -228 -89 -16 -17
49 -63 75 -54 17 6 22 0 14 -13 -8 -13 -32 -23 -53 -23 -25 0 -34 -10 -26 -30
8 -23 -4 -30 -51 -30 -62 0 -84 -28 -37 -47 30 -12 -23 -56 -55 -46 -48 16
-84 -93 -44 -133 20 -20 32 -51 25 -68 -8 -21 -2 -27 19 -19 23 9 30 -3 30
-48 0 -37 -10 -59 -28 -59 -30 0 -22 -69 13 -115 22 -28 -1 -33 -39 -9 -13 8
-21 33 -17 54 3 22 -3 51 -14 65 -11 14 -14 61 -7 105 12 79 12 79 -38 56 -53
-24 -72 -83 -20 -63 35 13 38 -1 9 -56 -18 -33 -27 -35 -52 -14 -48 40 -92 38
-122 -4 -15 -22 -36 -39 -46 -39 -34 0 -20 87 20 129 137 144 151 173 105 226
-41 47 -84 38 -70 -15 6 -21 -8 -56 -32 -82 -26 -29 -37 -60 -30 -88 17 -67
-36 -98 -86 -51 -31 29 -47 32 -64 15 -18 -18 -28 -17 -41 4 -9 15 -27 21 -39
13 -14 -8 -22 4 -22 31 0 25 -6 39 -14 31 -16 -16 -88 207 -75 229 5 8 0 21
-11 28 -13 8 -10 28 10 56 34 49 40 82 10 64 -11 -7 -20 10 -20 39 0 51 27 68
50 31 24 -40 87 -23 76 20 -8 31 -3 38 22 28 17 -7 32 -26 32 -42 0 -21 13
-27 40 -20 22 6 45 2 51 -7 5 -9 23 -12 39 -6 32 12 32 87 0 114 -11 9 -1 12
24 7 31 -7 40 -2 32 18 -6 18 -27 24 -58 16 -37 -10 -49 -4 -50 25 -2 33 -4
34 -12 2 -5 -19 -17 -35 -27 -35 -40 0 -16 -40 31 -52 27 -7 45 -20 38 -30 -6
-10 -19 -13 -29 -7 -11 6 -19 2 -19 -10 0 -12 -27 -2 -60 22 -63 47 -81 89
-29 69 18 -6 26 -3 19 8 -7 11 2 20 19 20 18 0 31 17 31 40 0 22 11 40 25 40
17 1 15 7 -5 20 -16 11 -20 20 -7 20 12 0 28 15 35 32 9 23 4 29 -18 21 -38
-15 -93 5 -79 29 6 10 -5 18 -25 18 -31 0 -35 -15 -32 -100 5 -99 -51 -150
-81 -75 -7 17 -11 16 -12 -5 -1 -16 -15 -47 -31 -68 -27 -36 -29 -34 -24 25 2
35 11 63 19 63 8 0 15 19 15 41 0 33 9 39 40 29 36 -12 40 -4 40 87 0 56 9
106 20 113 12 7 15 23 7 35 -9 14 -2 17 19 9 38 -14 41 144 4 170 -13 9 -11
23 4 38 26 26 52 -18 74 -124 7 -33 35 -64 74 -83 63 -31 63 -31 19 -55 -33
-17 -51 -18 -67 -2 -34 34 -51 26 -40 -19 12 -43 101 -99 137 -86 12 4 36 -24
55 -63 18 -38 44 -68 57 -65 28 6 71 -97 51 -118 -8 -8 -26 1 -39 19 -14 18
-35 27 -48 19 -16 -11 -13 -24 10 -45 17 -16 35 -28 38 -25 3 3 33 -9 67 -26
34 -18 67 -27 73 -20 7 6 1 11 -11 11 -44 0 -72 84 -36 104 18 10 28 27 21 38
-6 10 -22 13 -35 5 -13 -7 -17 -6 -9 3 8 9 1 38 -15 63 -28 42 -28 47 0 47 16
0 30 9 30 19 0 11 15 14 34 7 27 -11 25 0 -12 52 -29 39 -58 60 -75 53 -16 -6
-24 -2 -18 8 7 10 4 23 -6 29 -20 13 -45 -59 -27 -77 6 -6 27 -11 47 -11 21 0
35 -11 32 -25 -7 -35 -62 -54 -81 -27 -9 12 -11 0 -3 -28 11 -39 8 -45 -11
-26 -14 13 -28 47 -31 76 -3 28 -16 64 -28 79 -16 19 -16 31 -2 40 14 9 11 23
-8 43 -16 16 -24 42 -18 58 6 17 -3 35 -21 42 -18 7 -32 21 -32 32 0 11 11 16
25 11 14 -6 37 2 51 18 14 15 19 27 11 27 -8 0 3 13 24 30 33 25 35 32 10 49
-26 16 -25 21 5 32 19 7 34 26 34 40 0 15 27 55 60 89 33 34 60 75 60 92 0 40
-38 16 -61 -39 -13 -30 -15 -12 -6 57 7 55 21 111 31 124 25 32 100 25 87 -8
-17 -44 23 -28 56 23 24 36 26 50 7 57 -13 5 1 16 31 24 30 8 50 22 44 32 -6
10 16 18 51 18 54 0 59 -4 41 -38 -15 -28 -14 -42 4 -49 16 -6 13 -10 -8 -11
-17 -1 -43 -15 -56 -31 -13 -16 -49 -34 -81 -41 -31 -7 -62 -26 -68 -42 -7
-17 -21 -25 -32 -18 -11 7 -20 -10 -20 -40 0 -29 7 -49 15 -45 8 4 39 19 69
34 30 15 69 20 90 12 33 -14 32 -17 -10 -33 -26 -10 -41 -27 -34 -38 7 -11 -2
-20 -20 -20 -24 0 -29 -11 -20 -40 10 -31 5 -37 -20 -27 -19 7 -43 -3 -60 -25
-16 -21 -29 -29 -30 -18 -2 60 -39 -53 -40 -122 0 -137 20 -203 66 -215 54
-14 108 25 70 50 -21 14 -20 21 4 37 20 13 22 19 5 20 -35 0 -31 59 5 73 42
16 38 102 -5 115 -19 6 -11 8 19 4 30 -3 51 0 46 8 -5 8 15 36 44 62 42 39 50
41 39 12 -7 -22 -1 -49 16 -66 30 -30 31 8 3 142 -4 22 6 53 23 69 28 25 30
22 21 -25 -7 -37 -2 -54 17 -54 15 0 27 14 27 30 0 42 40 38 42 -5 1 -19 10
-4 21 34 15 50 25 61 37 41 13 -21 20 -16 27 21 25 118 25 152 2 152 -13 0
-24 -21 -24 -47 0 -25 -22 -69 -50 -96 l-49 -50 -38 44 c-29 32 -31 40 -7 32
22 -8 37 8 52 55 11 37 13 63 4 57 -38 -23 -14 68 28 106 41 38 51 39 115 13
39 -15 52 -24 29 -20 -29 5 -40 -4 -40 -30 0 -42 46 -35 131 19 28 18 72 36
100 40 27 3 55 16 62 28 9 14 25 14 51 0 28 -16 46 -13 72 11 33 29 35 27 36
-27 2 -58 2 -58 24 -11 19 39 17 50 -11 66 -107 60 -6 73 107 14z m359 -17 c0
-11 -9 -20 -20 -20 -11 0 -20 -10 -20 -22 0 -13 18 -18 40 -12 22 6 40 2 40
-8 0 -10 20 -18 45 -18 37 0 98 -58 105 -100 9 -50 36 -98 51 -89 11 6 19 3
19 -7 0 -11 6 -47 13 -82 l12 -62 -72 30 c-69 29 -73 28 -73 -7 0 -44 -49 -92
-77 -75 -10 7 -24 -2 -31 -20 -23 -59 -12 -74 27 -39 43 39 341 64 341 29 0
-10 23 -18 50 -18 31 0 50 -11 50 -30 0 -16 13 -30 28 -30 15 0 32 -12 38 -27
6 -15 56 -44 110 -64 l100 -35 -7 -109 c-9 -147 -36 -174 -57 -58 -14 79 -50
119 -83 92 -19 -15 -34 -9 -57 24 -18 25 -32 36 -32 24 0 -13 -14 -28 -30 -34
-25 -10 -27 -5 -10 26 27 51 25 61 -10 61 -16 0 -30 9 -30 20 0 42 -135 22
-146 -22 -17 -64 -54 -25 -41 43 10 51 7 58 -24 46 -24 -9 -31 -6 -21 10 9 14
2 23 -16 23 -40 0 -69 -55 -58 -108 8 -34 6 -36 -12 -12 -12 17 -22 52 -22 78
0 48 0 48 -43 10 -24 -21 -37 -27 -29 -13 8 14 5 25 -6 25 -11 0 -28 -15 -38
-32 -16 -28 -22 -29 -45 -3 -24 25 -33 24 -68 -10 -40 -37 -41 -37 -47 3 -4
25 -17 36 -35 29 -33 -13 -40 45 -11 90 14 23 21 21 37 -7 13 -24 24 -28 33
-13 8 13 6 23 -4 23 -9 0 -28 23 -41 51 -30 65 -29 70 7 56 58 -22 30 50 -30
76 -69 31 -75 68 -21 132 41 50 137 61 178 20 20 -20 29 -19 44 5 15 24 18 21
19 -14 0 -25 16 -48 38 -55 26 -9 35 -25 28 -52 -6 -21 -1 -39 12 -39 37 0 52
9 46 28 -3 10 9 6 27 -9 30 -24 33 -23 26 12 -5 23 -23 38 -44 36 -20 -2 -31
2 -25 8 18 17 -54 125 -83 125 -15 0 -22 9 -15 20 7 11 -4 20 -24 20 -66 1
-97 33 -67 68 29 36 61 42 61 12z m308 -143 c-18 -30 -68 22 -67 70 0 42 1 42
40 -4 21 -26 34 -56 27 -66z m167 68 c15 -45 -51 -49 -95 -5 l-43 43 65 -7
c36 -3 69 -17 73 -31z m105 -173 c0 -31 -5 -35 -24 -16 -35 35 -47 30 -50 -21
-4 -79 14 -135 44 -135 17 0 30 -9 30 -19 0 -11 13 -15 30 -8 16 6 35 -2 41
-19 7 -17 33 -36 58 -42 29 -7 55 -36 69 -75 28 -79 28 -77 -8 -77 -16 0 -30
9 -30 20 0 12 -31 36 -70 54 -38 18 -70 45 -70 60 0 14 -7 27 -15 28 -62 6
-94 20 -109 47 -10 17 -29 31 -43 31 -94 0 -172 84 -123 133 26 26 30 26 30 1
0 -16 18 -34 40 -40 22 -6 40 -1 40 10 0 12 15 9 34 -7 18 -15 27 -17 20 -4
-8 13 -6 46 5 74 24 62 101 66 101 5z m327 -33 c29 -23 53 -59 53 -80 0 -53
-16 -49 -83 21 -91 95 -69 137 30 59z m-67 -138 c0 -21 -9 -44 -20 -51 -11 -7
-20 5 -20 27 0 22 -11 44 -25 50 -14 5 -5 11 20 11 32 2 45 -9 45 -37z m20
-262 c0 -22 22 -63 49 -90 51 -51 44 -149 -10 -149 -12 0 -16 9 -9 20 14 23
-25 104 -63 126 -28 17 -37 97 -14 121 26 25 47 13 47 -28z m-1032 -57 c-15
-33 -22 -35 -44 -10 -15 16 -17 28 -5 28 12 0 21 15 21 34 0 26 6 28 23 11 16
-16 18 -37 5 -63z m-1028 -1038 c0 -16 -75 -104 -89 -104 -25 0 -24 64 1 89
33 33 88 42 88 15z m724 -205 c6 -20 49 -34 114 -37 27 -2 14 -30 -15 -34 -7
-1 -38 -12 -69 -25 -98 -40 -174 -30 -169 22 6 59 123 121 139 74z m-1264 -59
c28 -19 84 -56 125 -82 41 -26 75 -54 75 -60 0 -7 20 -9 45 -4 53 10 117 -80
138 -194 23 -125 38 -189 50 -220 6 -16 14 -52 17 -80 24 -228 35 -369 39
-480 3 -71 11 -155 18 -185 9 -34 6 -55 -8 -55 -12 0 -16 9 -9 20 7 11 -3 20
-21 20 -22 0 -29 11 -21 31 11 28 -63 367 -98 455 -11 27 -4 39 26 47 34 9 38
19 23 58 -9 26 -37 129 -60 228 -23 100 -51 181 -62 181 -12 0 -37 20 -58 45
-35 41 -38 42 -38 7 -1 -29 -27 -13 -116 72 -247 236 -339 200 -243 -94 57
-179 40 -232 -29 -86 -29 62 -54 139 -55 170 -2 34 -6 42 -12 21 -15 -59 -46
-39 -44 30 0 36 6 54 11 40 17 -42 42 -28 56 30 32 131 132 165 251 85z m2435
-56 c-40 -8 -44 -30 -15 -83 23 -45 -39 -68 -107 -41 -24 10 -34 18 -23 19 11
1 7 10 -9 20 -64 40 98 138 169 102 11 -5 4 -13 -15 -17z m-275 -51 c0 -83 14
-97 68 -70 35 18 38 17 17 -5 -36 -37 -32 -49 26 -75 93 -42 207 -30 228 25
22 58 58 83 83 58 50 -50 11 -451 -49 -496 -38 -29 -61 -133 -33 -150 40 -25
59 -158 32 -234 l-24 -70 -24 52 c-24 54 -63 70 -65 27 0 -14 -36 14 -79 62
-59 65 -88 83 -118 74 -29 -9 -49 1 -72 36 -43 65 -82 78 -120 41 -58 -59
-210 0 -210 80 0 93 105 124 170 52 59 -65 144 -54 146 20 1 35 -7 56 -18 49
-11 -7 -18 15 -15 54 6 102 -53 267 -113 317 -24 20 -46 159 -25 160 3 0 41
14 85 29 109 40 110 40 110 -36z m-2182 -121 c35 -37 41 -57 26 -85 -18 -35
-11 -86 14 -107 53 -44 88 -101 54 -88 -30 12 -34 7 -23 -29 21 -67 -57 -56
-108 15 -32 46 -41 89 -41 200 0 155 10 167 78 94z m282 -180 c0 -27 5 -63 12
-80 8 -21 1 -32 -19 -32 -44 0 -58 32 -43 100 16 72 50 80 50 12z m322 -412
c-11 -74 -16 -81 -26 -43 -7 26 -3 69 9 95 29 65 32 55 17 -52z m142 -70 c8
-52 -24 -69 -50 -28 -24 39 -2 114 26 86 10 -10 21 -37 24 -58z m1466 -90 c7
-11 -1 -14 -19 -8 -20 8 -31 1 -31 -20 0 -40 -70 -112 -110 -112 -20 0 -30 20
-30 60 0 33 8 60 18 60 10 0 13 -20 8 -45 -10 -39 -3 -36 47 20 58 66 95 80
117 45z m-5 -132 c44 -16 46 -94 3 -129 -23 -20 -40 -21 -66 -5 -22 14 -46 15
-68 3 -21 -12 -34 -12 -34 0 0 10 13 24 28 30 16 5 34 38 42 73 8 37 23 58 37
51 13 -6 39 -17 58 -23z m-264 -77 c-35 -42 -86 -40 -76 4 4 19 19 32 34 29
17 -4 21 6 12 30 -12 34 -11 34 21 2 29 -28 30 -39 9 -65z m438 68 c11 17 20
16 35 -3 15 -19 10 -37 -20 -66 -22 -22 -34 -29 -27 -16 8 13 5 29 -7 36 -11
7 -19 28 -18 46 1 24 4 26 12 7 8 -20 15 -21 25 -4z m-539 -104 c0 -14 -14
-10 -34 10 -31 32 -36 32 -70 1 -20 -18 -36 -22 -36 -10 0 12 16 31 34 41 40
22 106 -4 106 -42z m537 -101 c32 -26 16 -131 -39 -237 -21 -42 -38 -94 -38
-117 0 -26 -9 -37 -22 -29 -15 10 -21 -20 -18 -94 7 -155 5 -170 -23 -142 -13
13 -26 44 -29 69 -2 25 -5 52 -6 60 -1 8 -15 10 -32 3 -33 -13 -41 -78 -11
-97 36 -21 -63 -110 -123 -110 -31 0 -56 9 -56 20 0 11 13 20 30 20 30 0 32
49 4 93 -8 13 -8 39 -1 58 11 27 7 31 -15 18 -24 -14 -24 -12 1 19 15 19 44
31 65 25 20 -5 36 -1 36 9 0 10 11 18 25 19 25 1 155 182 155 216 0 36 -242
27 -273 -11 -23 -28 -32 -30 -41 -9 -9 23 -14 23 -28 0 -12 -19 -17 -20 -18
-2 0 18 -14 19 -52 4 -28 -10 -61 -13 -73 -6 -12 8 -15 4 -7 -10 9 -15 -3 -23
-35 -23 -27 0 -53 10 -57 21 -10 31 -63 5 -94 -46 -15 -25 -21 -39 -13 -31 9
7 38 5 65 -6 35 -13 59 -12 78 3 20 17 41 13 85 -19 33 -23 77 -42 99 -42 33
0 41 -17 49 -115 10 -111 -10 -176 -47 -154 -10 6 -12 -4 -5 -23 9 -23 5 -31
-15 -24 -38 13 -48 77 -16 98 36 21 12 42 -29 26 -18 -7 -33 -27 -33 -45 -1
-29 -3 -29 -20 -3 -16 25 -20 23 -20 -10 -1 -30 -10 -22 -34 28 -31 63 -31 69
0 92 19 13 34 31 34 40 0 8 -13 4 -30 -10 -16 -14 -30 -17 -31 -7 0 9 -13 0
-30 -22 -17 -23 -29 -28 -29 -13 0 15 -13 21 -29 15 -19 -7 -25 -1 -18 18 14
37 -7 37 -43 2 -21 -21 -22 -33 -4 -51 19 -19 16 -21 -11 -11 -58 22 -23 149
41 149 28 1 29 4 5 19 -16 10 -36 14 -45 9 -9 -6 -16 0 -16 12 0 12 -10 16
-22 9 -15 -9 -18 -1 -10 26 9 27 3 44 -17 52 -42 16 -39 45 10 94 35 35 38 47
15 75 -23 30 -22 31 6 9 28 -22 38 -18 64 22 28 42 46 48 143 45 61 -3 111 2
111 9 0 16 13 17 215 25 90 4 170 13 178 20 16 16 108 -4 144 -32z m-890 -444
c-17 -44 -67 -53 -67 -13 0 46 17 63 51 50 14 -6 22 -22 16 -37z m224 -223 c5
-23 29 -48 54 -55 40 -11 41 -15 12 -32 -36 -21 -97 -7 -97 22 0 9 -12 12 -27
6 -21 -8 -25 3 -18 41 5 28 18 51 27 51 10 0 19 20 20 45 3 48 1 54 29 -78z
m-84 62 c-6 -16 -17 -25 -24 -21 -18 11 -74 -31 -89 -68 -8 -17 -11 -9 -8 20
3 28 16 48 29 45 14 -3 25 7 25 21 0 14 17 27 39 28 26 2 35 -6 28 -25z m733
-57 c0 -40 107 -272 126 -272 8 0 23 20 33 45 14 34 19 37 20 10 1 -25 18 -35
61 -35 33 0 60 -9 60 -20 0 -11 14 -20 30 -20 17 0 30 8 30 18 0 66 135 -29
212 -150 82 -129 84 -123 -71 -198 -92 -44 -119 -66 -109 -89 7 -17 13 -45 12
-62 -1 -45 69 -86 83 -49 7 17 1 24 -15 18 -31 -12 -54 56 -32 93 9 13 34 20
56 14 29 -7 38 -2 30 17 -6 16 9 35 38 46 27 10 64 41 83 69 37 58 42 81 13
63 -35 -22 -21 34 15 62 47 36 85 35 85 -3 0 -18 14 -28 35 -25 27 5 34 -7 31
-49 -2 -30 4 -55 14 -55 9 0 21 -11 25 -25 5 -14 5 -2 1 26 -6 39 2 51 33 53
23 2 41 -6 41 -17 0 -13 20 -16 48 -9 27 6 52 5 55 -4 4 -8 41 -35 83 -60 42
-24 71 -35 64 -24 -7 11 -3 20 9 20 11 0 21 -9 21 -19 0 -29 135 -87 170 -74
20 8 30 -1 30 -28 0 -44 8 -47 59 -20 57 31 191 3 146 -30 -55 -41 -9 -70 80
-50 70 16 83 12 78 -23 -2 -8 10 -10 25 -4 15 6 33 -5 40 -23 10 -27 18 -29
42 -9 63 53 -69 -860 -152 -1050 -25 -57 -61 -207 -71 -300 -5 -44 -14 -93
-21 -110 -6 -16 -13 -57 -16 -90 -3 -33 -19 -154 -36 -270 -45 -309 -51 -512
-16 -504 16 3 34 -1 40 -10 37 -49 111 -94 163 -98 71 -5 77 25 10 55 -26 12
-59 48 -72 79 -13 32 -31 53 -40 47 -34 -21 -44 78 -11 102 30 22 27 26 -22
38 l-55 14 54 33 c30 18 55 41 55 50 0 9 7 12 16 7 36 -23 76 26 42 52 -17 14
-28 36 -23 50 5 14 0 25 -11 25 -30 0 -46 119 -23 163 12 21 25 86 30 143 12
137 39 305 66 404 12 44 32 143 44 220 12 77 25 158 30 180 12 56 44 236 70
390 37 223 42 241 59 230 10 -6 17 -26 16 -45 -3 -81 31 -317 48 -339 12 -15
7 -48 -14 -94 -19 -38 -27 -80 -19 -93 8 -13 5 -29 -5 -36 -28 -18 -50 -143
-25 -143 10 0 19 8 19 19 0 46 119 80 141 40 11 -22 15 -39 9 -39 -7 0 -6 -10
2 -23 8 -13 17 -59 21 -104 4 -44 21 -95 37 -113 53 -59 35 -92 -45 -81 -39 5
-29 -33 12 -44 51 -13 46 -67 -9 -96 -70 -38 -77 -79 -12 -79 37 -1 46 -6 27
-18 -20 -12 -15 -20 20 -29 39 -11 42 -16 17 -33 -26 -17 -25 -19 4 -20 76 0
135 -46 148 -113 7 -37 20 -67 29 -67 19 0 69 -104 85 -174 21 -96 -55 -83
-80 14 -10 39 -27 66 -37 60 -23 -12 -13 -108 12 -117 11 -3 19 -19 19 -34 0
-55 87 -95 104 -48 9 23 25 36 38 28 15 -10 15 -20 0 -35 -38 -38 -24 -91 48
-197 81 -118 84 -127 30 -132 -24 -1 -40 10 -40 28 0 18 -15 27 -37 23 -20 -3
-52 6 -70 21 -18 16 -33 20 -33 10 0 -9 -8 -5 -18 10 -24 39 -140 42 -164 4
-15 -23 -18 -14 -10 34 9 55 5 65 -28 65 -22 0 -40 -8 -40 -17 0 -34 -99 -18
-110 17 -22 69 -183 51 -247 -27 -36 -42 3 -58 69 -28 43 19 57 19 63 0 13
-38 81 -30 91 10 7 26 10 24 12 -10 2 -44 82 -70 82 -26 0 10 17 17 38 16 22
-2 33 -14 28 -29 -10 -26 -33 -34 -81 -27 -14 1 -25 -6 -25 -16 0 -10 37 -19
83 -19 63 -1 94 -14 125 -51 23 -27 68 -55 99 -62 38 -8 53 -22 46 -41 -13
-33 18 -60 36 -31 13 21 48 -4 163 -114 38 -36 62 -65 53 -65 -8 0 14 -18 49
-39 35 -21 74 -60 88 -85 13 -25 41 -58 61 -72 60 -43 45 -70 -33 -58 -91 15
-88 3 30 -115 142 -141 113 -159 -130 -80 -44 14 -120 28 -170 31 -49 3 -100
12 -111 21 -70 52 -527 105 -586 69 -43 -27 -165 31 -159 74 3 24 20 45 36 47
17 1 38 3 48 5 26 3 -49 82 -79 82 -13 0 -35 13 -49 30 -64 77 -70 -25 -7
-125 25 -41 24 -45 -13 -45 -22 0 -40 9 -40 20 0 11 -13 20 -28 20 -52 0 -65
315 -15 365 29 29 30 55 0 55 -12 0 -35 16 -49 35 -15 19 -28 26 -29 15 -1
-11 -4 -47 -7 -80 -7 -81 -32 -270 -43 -324 -12 -58 -113 -43 -188 27 -28 26
-63 47 -78 47 -19 0 -25 16 -18 50 11 61 -35 70 -51 10 -7 -27 -27 -40 -63
-40 -65 0 -136 35 -121 60 6 9 -8 23 -30 30 -40 13 -57 70 -20 70 11 0 20 20
19 45 0 42 -2 43 -28 9 -18 -24 -32 -29 -41 -14 -17 27 -94 5 -117 -34 -14
-25 -24 -23 -60 10 -24 22 -62 45 -86 52 -61 19 -77 88 -17 77 25 -5 51 1 59
13 8 14 -7 22 -43 22 -38 1 -48 6 -29 18 21 13 20 19 -5 29 -18 6 -32 3 -32
-8 0 -46 -133 -20 -156 31 -13 28 -15 50 -5 50 9 0 13 18 7 40 -14 52 -66 52
-66 0 0 -22 -9 -40 -20 -40 -11 0 -20 12 -20 27 0 14 -21 38 -48 52 -102 55
-42 111 142 132 64 7 211 30 326 50 l210 37 -210 -11 c-115 -7 -226 -21 -246
-31 -20 -10 -83 -16 -139 -13 -75 4 -105 -3 -112 -24 -31 -93 -73 -95 -153
-10 -36 38 -69 66 -73 62 -4 -4 -61 -12 -127 -17 -66 -6 -129 -12 -140 -14
-66 -15 -70 -1 -59 215 10 198 24 275 72 401 9 25 17 63 17 84 0 21 11 45 25
54 48 30 71 119 62 238 -17 212 -13 322 33 978 12 165 31 354 44 420 34 178
15 497 -27 455 -11 -11 -36 -154 -57 -319 -41 -318 -80 -512 -117 -581 -13
-23 -19 -76 -14 -117 6 -41 2 -85 -7 -97 -9 -11 -23 -55 -30 -96 -15 -84 -62
-101 -82 -30 -18 64 -56 141 -85 171 -63 67 -27 99 56 50 32 -19 63 -28 70
-21 30 29 -27 106 -251 338 -176 181 -239 260 -239 297 0 40 4 44 19 20 13
-20 19 -22 20 -5 0 14 14 25 30 25 17 0 30 -9 30 -20 0 -44 36 -16 46 36 8 38
33 66 83 89 80 38 82 44 44 117 -23 43 -23 51 0 51 15 0 27 -8 27 -18 0 -9 29
-15 65 -11 45 4 63 15 59 36 -6 25 0 24 27 -4 43 -42 198 19 306 121 71 67
123 81 123 35z m-1380 -757 c0 -41 -10 -55 -39 -55 -32 0 -38 11 -32 59 16
123 70 119 71 -4z m-121 -73 c26 -48 -24 -74 -60 -31 -18 22 -18 29 0 29 13 0
18 9 11 20 -7 11 -3 20 8 20 11 0 30 -17 41 -38z m1092 -1554 c-7 -30 -21 -44
-35 -36 -15 10 -18 3 -10 -18 7 -18 1 -61 -14 -96 -17 -40 -23 -110 -17 -198
12 -157 -18 -200 -63 -91 -42 100 -69 88 -76 -34 -5 -91 -12 -106 -51 -111
-70 -10 -47 304 32 426 7 11 22 52 34 90 17 58 31 71 82 76 44 4 69 22 88 60
31 64 52 17 30 -68z m-4232 -151 c38 -45 69 -62 112 -61 186 5 217 3 228 -12
6 -10 77 -28 158 -41 154 -25 223 -51 223 -84 0 -10 18 -37 40 -59 28 -28 40
-67 40 -129 0 -49 8 -94 18 -100 10 -6 22 -40 27 -76 12 -93 22 -123 45 -140
11 -8 -18 -15 -64 -15 -103 0 -275 -34 -356 -69 -33 -15 -130 -56 -215 -91
-85 -35 -160 -71 -166 -81 -5 -9 -23 -13 -38 -7 -15 6 -33 1 -40 -11 -7 -11
-35 -21 -62 -21 -27 0 -49 -10 -49 -22 0 -12 -12 -18 -26 -12 -15 5 -84 -29
-155 -77 -71 -47 -132 -83 -136 -79 -14 15 87 126 124 137 20 6 31 20 24 32
-7 11 -1 21 15 21 15 0 44 18 64 40 20 22 41 36 46 31 19 -19 125 51 111 73
-9 15 -2 18 19 10 18 -7 38 -4 44 5 6 10 -9 24 -32 32 -26 8 -49 4 -58 -11
-11 -18 -19 -18 -29 -2 -8 13 -23 17 -35 10 -11 -7 -27 -2 -35 11 -11 17 -31
10 -71 -27 -106 -99 -148 -57 -50 49 l61 64 -82 -13 c-46 -7 -79 -6 -74 2 4 9
21 45 36 81 19 44 42 66 73 68 25 1 62 3 81 4 22 2 36 -12 37 -37 4 -74 8 -81
47 -81 21 0 34 7 28 15 -5 9 14 16 42 16 28 0 51 -9 51 -20 0 -12 19 -10 49 3
l50 23 -45 47 c-24 25 -58 46 -75 47 -17 0 -42 11 -55 24 -13 13 -35 26 -49
29 -205 47 -295 104 -170 109 25 0 34 6 20 11 -45 18 -26 66 30 79 30 8 67 23
82 34 18 15 31 14 42 -5 9 -14 26 -20 39 -12 12 7 44 -9 70 -35 27 -27 56 -42
65 -34 22 20 267 -20 267 -43 0 -9 14 -17 30 -17 17 0 30 16 29 35 0 40 -65
125 -95 125 -30 0 -201 79 -213 99 -6 10 -38 24 -71 31 -33 7 -60 26 -60 42 0
15 -8 28 -18 28 -21 0 -44 80 -30 103 17 28 33 20 87 -46z m3824 -202 c4 -80
2 -149 -5 -155 -6 -5 -17 -45 -24 -88 l-12 -78 315 12 c348 13 466 -4 543 -74
28 -26 99 -72 158 -104 60 -32 150 -95 200 -139 111 -98 199 -154 411 -259
224 -111 242 -148 240 -513 -2 -317 -28 -392 -126 -368 -141 35 -163 36 -163
5 0 -17 11 -35 25 -41 14 -5 -2 -11 -34 -11 -38 -1 -78 17 -114 51 -59 56
-117 53 -117 -8 0 -52 -65 -84 -195 -98 -122 -12 -285 20 -285 56 0 13 -22 17
-53 11 -89 -17 -280 53 -309 114 -17 36 -17 38 6 10 38 -46 180 -59 301 -26
132 35 223 37 203 5 -10 -17 -3 -19 24 -8 21 9 70 23 108 31 39 9 54 16 35 18
-19 1 -35 10 -35 20 0 10 -19 13 -42 7 -37 -9 -41 -4 -29 37 10 34 8 40 -6 20
-12 -17 -57 -27 -126 -27 -59 0 -116 -7 -128 -16 -42 -34 -335 -16 -414 24
-26 14 -35 10 -35 -12 0 -17 15 -31 34 -31 20 0 26 -7 15 -17 -24 -21 -212 -5
-199 17 5 9 -4 21 -20 27 -52 20 -33 50 35 57 l65 6 -56 38 c-60 41 -154 16
-154 -40 0 -14 -9 -31 -19 -38 -25 -15 -121 47 -121 78 0 64 -53 102 -78 56
-20 -37 -17 -51 17 -88 69 -73 48 -97 -46 -54 -66 30 -82 144 -27 193 45 41
550 59 618 23 27 -15 47 -14 66 2 16 13 37 18 48 11 18 -11 82 61 82 92 0 8
-19 20 -41 27 -24 8 -37 25 -32 40 23 60 -99 113 -165 72 -22 -14 -19 -22 15
-41 24 -12 43 -36 43 -52 0 -25 -8 -26 -42 -8 -23 13 -71 26 -105 29 -35 4
-81 11 -103 17 -22 5 -53 12 -70 16 -16 4 -42 23 -56 42 -27 36 -164 51 -164
17 0 -20 61 -51 88 -44 10 2 7 -10 -7 -27 -63 -76 -201 23 -201 143 0 100 13
101 750 35 175 -16 201 12 100 106 -44 41 -80 79 -81 85 -3 61 -47 82 -145 69
-105 -14 -133 -40 -69 -63 39 -15 110 -88 97 -101 -5 -4 -34 5 -65 21 -155 78
-319 113 -438 94 -142 -23 -168 -6 -164 104 4 92 58 127 165 108 225 -41 414
-49 505 -21 52 16 118 29 147 29 67 0 77 12 60 76 -30 109 -200 128 -177 20 7
-38 -115 -45 -148 -9 -24 26 -31 25 -62 -2 -30 -27 -43 -28 -85 -5 -31 17 -58
19 -74 7 -38 -27 -161 -21 -171 8 -5 16 11 25 43 25 29 0 52 10 52 22 0 13
-21 19 -49 13 -27 -5 -53 0 -56 11 -11 32 -55 -4 -55 -44 0 -42 -85 -92 -129
-75 -19 7 -31 1 -31 -18 0 -16 -12 -29 -28 -29 -31 0 -31 111 0 138 10 9 78
37 152 63 l134 46 -11 84 c-13 91 43 389 73 389 9 0 20 -65 23 -145z m-242
-222 c-28 -74 -90 -73 -72 2 8 30 25 61 37 69 39 24 57 -14 35 -71z m-948
-223 c6 -16 19 -25 29 -19 10 6 18 -7 18 -29 0 -22 -10 -46 -23 -54 -13 -8
-18 -3 -12 14 5 15 -9 48 -31 73 -24 26 -31 45 -17 45 13 0 29 -13 36 -30z
m-1740 -103 c-7 -8 2 -31 21 -52 28 -30 29 -41 8 -54 -19 -11 -20 -20 -4 -30
35 -21 8 -47 -97 -92 -101 -44 -168 -106 -190 -177 -8 -25 -31 -42 -55 -42
-70 0 -401 -97 -577 -170 -93 -38 -180 -69 -194 -70 -14 0 -25 -7 -25 -16 0
-9 -32 -27 -70 -41 -39 -14 -125 -76 -190 -137 -126 -116 -152 -122 -74 -18
77 102 85 121 47 106 -18 -7 -33 -5 -33 5 0 20 133 140 161 144 10 1 28 4 39
7 11 3 29 6 40 8 13 1 12 15 -2 38 -40 64 189 244 312 244 14 0 49 27 77 60
28 33 62 60 77 60 15 0 45 12 67 26 37 25 234 90 499 164 66 18 129 36 140 40
33 11 37 11 23 -3z m2584 -169 c-41 -79 -42 -85 -9 -140 29 -50 30 -58 4 -58
-16 0 -38 -15 -48 -32 -34 -61 -105 0 -92 77 23 134 95 226 183 235 2 0 -15
-37 -38 -82z m2398 -276 c91 -32 165 -55 165 -51 0 4 47 -15 105 -42 58 -27
123 -49 146 -49 22 0 103 -30 180 -67 91 -43 153 -62 179 -53 21 7 70 7 109
-2 39 -8 170 -30 291 -48 422 -64 675 -134 656 -182 -6 -16 1 -42 14 -58 33
-40 15 -38 -64 6 -144 80 -358 144 -478 144 -66 0 -144 12 -174 28 -60 31
-354 54 -325 25 49 -49 436 -153 409 -109 -44 70 272 1 427 -94 233 -142 304
-304 303 -690 0 -206 -56 -183 -78 34 -19 184 -50 313 -78 322 -11 4 -15 19
-9 35 10 27 -69 160 -86 143 -4 -5 5 -35 21 -66 25 -49 40 -83 62 -148 2 -5 9
-23 15 -40 25 -64 29 -197 10 -301 -10 -60 -21 -129 -24 -154 -2 -25 -10 -51
-18 -58 -7 -8 -13 -47 -13 -88 0 -57 -12 -82 -49 -107 -71 -46 -91 -40 -91 26
0 32 -8 62 -19 65 -10 4 -23 57 -28 117 -14 162 -49 321 -83 373 -17 25 -30
55 -30 67 0 12 -18 41 -40 65 -22 23 -40 57 -40 74 -1 46 -136 221 -170 221
-38 0 -38 -28 0 -60 17 -14 30 -36 30 -50 0 -13 16 -46 36 -72 143 -191 271
-630 184 -632 -41 -1 -82 34 -68 57 6 11 -12 41 -42 68 l-53 50 14 -46 c7 -25
21 -54 31 -64 10 -10 18 -34 18 -52 0 -18 18 -54 41 -80 29 -34 37 -62 28 -98
-7 -28 -15 -60 -17 -71 -35 -191 -138 -57 -157 205 -1 14 -8 25 -16 25 -8 0
-15 55 -16 121 -1 67 -7 129 -12 138 -6 9 -19 77 -29 150 -22 154 -70 246
-111 212 -41 -34 -53 -187 -22 -294 16 -58 26 -178 24 -294 -3 -168 2 -201 32
-222 41 -29 -22 -108 -65 -81 -12 7 -35 3 -51 -11 -38 -31 -136 -7 -122 30 6
15 -2 32 -17 38 -15 6 -31 1 -34 -10 -5 -14 -38 -11 -97 10 -49 17 -80 32 -68
32 30 1 25 81 -5 81 -14 0 -27 -9 -28 -20 -2 -11 -4 -29 -5 -41 -4 -25 -53
-58 -88 -59 -35 0 -31 59 5 73 19 7 26 27 18 56 -7 30 -1 50 19 57 39 15 115
-6 102 -28 -6 -10 -2 -18 9 -18 41 0 42 40 3 79 -22 22 -61 38 -86 36 -31 -3
-45 6 -45 29 0 18 -7 40 -15 48 -8 8 -15 5 -15 -7 0 -12 -19 -28 -42 -35 -36
-12 -37 -39 -1 -40 73 -2 76 -64 3 -66 -34 -1 -56 7 -49 17 7 11 -18 15 -58
10 -59 -7 -70 -3 -68 29 2 20 10 33 19 28 30 -19 91 31 101 82 l10 52 -38 -41
c-74 -79 -103 -47 -64 70 17 48 27 103 23 123 -4 21 -18 0 -36 -54 -30 -95
-58 -127 -140 -164 l-50 -22 60 -13 c40 -8 59 -24 57 -47 -1 -19 5 -34 14 -34
24 0 4 -84 -24 -102 -27 -17 -77 -2 -77 24 0 9 16 11 35 4 28 -9 30 -7 11 14
-18 20 -16 37 10 78 31 49 31 50 -1 25 -23 -18 -35 -20 -35 -5 0 99 -70 -45
-78 -161 -2 -27 -27 -32 -162 -30 -164 3 -182 10 -131 52 16 13 39 57 52 98
12 40 35 101 50 135 65 145 114 418 116 648 3 239 -12 534 -24 498 -4 -11 -29
27 -56 86 -28 58 -64 122 -81 141 -41 45 -45 45 149 -23z m365 -1518 c0 -9
-11 -27 -24 -40 -19 -19 -17 -24 8 -24 18 0 37 -11 43 -25 8 -19 14 -20 27 -1
10 13 28 17 42 8 20 -12 19 -22 -7 -43 -26 -21 -40 -22 -71 -2 -22 13 -48 19
-59 12 -42 -26 -58 14 -28 72 28 55 69 80 69 43z m1200 -229 c0 -14 23 -59 51
-100 l50 -75 -68 0 c-37 0 -107 -14 -154 -30 -113 -40 -118 -27 -23 59 44 40
85 94 92 121 13 52 52 70 52 25z"/>
<path d="M4353 10167 c-7 -8 -13 -30 -13 -50 0 -44 -26 -48 -58 -9 -18 22 -34
23 -72 5 -58 -27 -81 -74 -47 -95 34 -21 57 -3 57 45 0 54 68 41 76 -16 4 -28
-7 -45 -35 -53 -30 -7 -40 -25 -39 -67 2 -34 6 -43 12 -22 11 41 29 44 62 11
19 -19 24 -17 24 10 0 27 9 30 51 14 67 -26 82 -25 55 2 -13 13 -18 35 -13 50
6 14 -4 47 -21 72 -42 60 -40 74 8 62 28 -7 40 -1 40 22 0 32 -61 45 -87 19z"/>
<path d="M3867 9586 c-4 -58 65 -153 96 -134 9 6 17 1 17 -11 0 -11 9 -21 20
-21 11 0 20 10 20 23 0 25 -76 97 -103 97 -9 0 -17 15 -17 34 0 30 3 30 25 3
35 -43 96 -63 82 -27 -6 15 -22 23 -37 17 -16 -6 -25 4 -23 27 2 22 -12 38
-37 42 -31 4 -41 -7 -43 -50z"/>
<path d="M3447 9500 c-46 -101 -46 -106 0 -88 37 14 61 85 49 141 -6 27 -20
11 -49 -53z"/>
<path d="M3780 9453 c0 -51 60 -98 91 -72 15 12 37 17 48 10 12 -8 21 -4 21 6
0 17 -58 47 -100 52 -5 1 -21 9 -35 17 -16 11 -25 6 -25 -13z"/>
<path d="M3821 9178 c-28 -11 -57 -31 -65 -44 -11 -19 -24 -18 -55 1 -34 21
-41 20 -41 -3 0 -16 -11 -33 -25 -39 -14 -5 2 -8 34 -6 45 2 65 -9 84 -46 32
-64 9 -100 -25 -39 -33 59 -36 40 -5 -36 45 -110 38 -129 -41 -120 -40 4 -57
4 -39 0 18 -5 37 -26 43 -47 6 -22 20 -39 31 -39 12 0 17 11 12 25 -5 14 17
37 50 51 35 16 55 37 49 53 -6 15 8 63 30 108 23 44 37 94 30 110 -6 16 -1 35
11 42 57 36 -4 58 -78 29z"/>
<path d="M4493 9092 c-21 -57 -15 -92 17 -92 32 0 36 27 12 89 -14 35 -16 36
-29 3z"/>
<path d="M5429 9102 c-10 -10 -37 -22 -59 -28 -25 -6 -16 -10 26 -12 37 -1 80
12 97 28 35 35 -28 46 -64 12z"/>
<path d="M4070 9020 c10 -33 -1 -47 -59 -71 -39 -16 -70 -41 -69 -54 1 -19 3
-19 11 0 6 14 19 20 30 13 11 -6 37 4 59 23 40 37 138 58 138 31 0 -8 14 -15
30 -15 17 0 30 11 30 26 0 14 -12 21 -27 15 -15 -6 -33 3 -39 19 -8 20 -27 26
-56 18 -30 -8 -40 -4 -30 12 8 13 4 23 -8 23 -14 0 -18 -16 -10 -40z"/>
<path d="M4713 9003 c-35 -36 -50 -68 -41 -90 7 -18 3 -33 -9 -33 -12 0 -16
-14 -10 -31 19 -49 71 7 55 59 -7 23 -6 36 2 28 28 -27 90 25 90 75 0 64 -20
62 -87 -8z"/>
<path d="M4485 8954 c30 -27 55 -63 55 -81 0 -34 23 -43 46 -20 8 7 2 27 -11
44 -21 26 -19 28 15 16 39 -15 39 -15 -1 23 -22 20 -67 44 -100 52 l-59 14 55
-48z"/>
<path d="M4794 8905 c-12 -65 -16 -60 51 -72 35 -7 55 -2 55 13 0 15 6 17 15
4 25 -34 68 -33 94 3 15 20 38 28 58 21 18 -7 33 -4 33 7 0 32 -121 29 -142
-4 -6 -11 -23 -5 -37 12 -33 40 -69 40 -54 1 7 -16 2 -30 -10 -30 -12 0 -18
22 -12 50 6 32 0 50 -15 50 -14 0 -30 -25 -36 -55z"/>
<path d="M3371 8804 c-15 -86 -108 -123 -123 -48 -3 14 0 16 5 5 6 -12 19 -21
29 -21 24 0 23 75 -2 90 -11 7 -20 4 -20 -6 0 -11 -18 -24 -40 -30 -22 -6 -40
-2 -40 8 0 67 -77 10 -83 -62 -7 -68 -2 -80 30 -80 32 0 34 5 13 30 -22 26
-20 29 7 18 18 -7 33 -34 33 -60 0 -33 9 -43 30 -35 26 10 26 5 0 -45 -16 -33
-24 -83 -18 -117 13 -76 28 -92 28 -31 0 44 2 45 26 13 23 -33 26 -32 29 9 4
63 42 96 66 58 16 -26 18 -26 19 2 0 17 -6 38 -14 45 -26 26 -22 73 6 73 16 0
28 20 28 48 0 27 11 52 25 57 20 7 20 15 0 38 -29 36 53 93 96 66 17 -10 20
-7 10 10 -9 14 -35 19 -62 13 -28 -7 -49 -2 -54 13 -5 14 -16 -14 -24 -61z"/>
<path d="M5187 8846 c2 -20 -16 -38 -46 -45 -60 -15 -79 -61 -24 -61 63 0 103
-22 105 -57 2 -18 8 -6 15 27 13 59 15 60 167 70 145 9 197 25 171 52 -6 6
-30 2 -52 -10 -69 -37 -218 -27 -263 18 -49 49 -76 51 -73 6z"/>
<path d="M4960 8646 c0 -12 14 -52 31 -89 l31 -67 -11 69 c-11 67 -51 135 -51
87z"/>
<path d="M4326 8465 c-20 -30 -27 -31 -44 -6 -15 23 -22 18 -33 -26 -16 -65 6
-97 33 -48 11 19 35 35 52 35 18 0 27 6 20 13 -8 7 -4 25 9 40 12 15 14 27 4
27 -9 0 -28 -16 -41 -35z"/>
<path d="M3977 7946 c-21 -5 -31 -26 -28 -62 7 -83 32 -146 52 -133 11 6 19
-8 19 -31 0 -23 9 -37 20 -30 11 7 20 -4 20 -24 1 -30 4 -31 20 -6 17 26 19
25 20 -3 0 -19 -11 -38 -25 -44 -20 -8 -20 -10 0 -11 18 -2 22 -19 13 -57 -8
-30 -7 -49 2 -41 8 8 28 1 44 -15 36 -36 94 -39 74 -4 -11 20 -8 20 13 0 19
-17 33 -18 53 -2 20 17 26 10 26 -33 0 -45 5 -51 29 -31 28 23 96 -48 103
-108 5 -49 34 -111 51 -111 10 0 9 17 -2 39 -29 53 -26 70 6 44 36 -31 56 -6
32 40 -11 20 -16 38 -10 40 6 1 22 4 36 5 33 5 21 53 -21 86 -64 50 -104 68
-104 47 0 -11 -13 -15 -30 -8 -16 6 -30 23 -30 38 0 15 -18 37 -40 49 -22 12
-39 28 -37 36 9 62 -7 104 -41 104 -21 0 -42 18 -48 42 -6 23 -21 36 -32 29
-11 -7 -38 26 -60 73 -22 47 -41 73 -41 57 -1 -24 -5 -24 -26 2 -14 17 -40 27
-58 23z"/>
<path d="M4555 7556 c-32 -24 -31 -28 15 -49 52 -24 56 -20 33 39 -12 29 -19
31 -48 10z"/>
<path d="M4560 7319 c1 -34 17 -59 65 -96 48 -38 44 -23 -15 57 -27 37 -50 55
-50 39z"/>
<path d="M4540 6859 c0 -12 -8 -16 -18 -10 -10 6 -23 -3 -30 -20 -7 -20 -25
-27 -50 -20 -23 8 -42 1 -49 -18 -14 -37 4 -91 29 -91 10 0 18 14 18 30 0 36
32 40 48 5 10 -20 14 -20 24 0 6 14 22 37 35 50 31 33 40 95 14 95 -12 0 -21
-10 -21 -21z"/>
<path d="M3956 6823 c18 -11 22 -41 12 -100 -9 -56 -6 -83 9 -83 13 0 23 14
23 31 0 17 25 35 60 42 67 13 82 47 20 47 -22 0 -51 18 -65 40 -13 22 -38 40
-55 40 -23 -1 -24 -4 -4 -17z"/>
<path d="M4192 6756 c-19 -95 -11 -112 20 -46 28 57 29 58 19 7 -9 -44 -2 -55
39 -65 28 -7 50 -22 50 -32 0 -11 7 -20 16 -20 8 0 15 17 15 38 0 24 -10 34
-28 26 -24 -9 -27 6 -17 77 7 55 5 76 -7 58 -14 -23 -25 -24 -56 -5 -34 21
-40 17 -51 -38z"/>
<path d="M3794 6712 c-6 -15 3 -47 20 -72 30 -42 29 -43 -10 -22 -22 12 -44
33 -49 47 -5 14 -9 0 -10 -30 0 -35 11 -55 29 -55 17 0 34 -17 40 -38 8 -33
59 -61 113 -62 10 0 13 18 7 40 -10 37 6 49 56 42 11 -1 2 11 -19 28 -22 17
-51 26 -65 21 -15 -6 -26 5 -27 25 -1 68 -66 127 -85 76z"/>
<path d="M4460 6684 c0 -14 -15 -23 -33 -20 -18 3 -37 -5 -42 -19 -5 -16 10
-25 42 -25 60 0 77 21 52 61 -13 21 -18 22 -19 3z"/>
<path d="M4056 6656 c34 -34 30 -83 -6 -69 -16 7 -30 3 -30 -8 0 -31 50 -22
94 16 34 29 36 40 14 60 -36 34 -106 35 -72 1z"/>
<path d="M4100 6530 c-15 -18 -13 -29 9 -37 17 -6 31 -2 31 10 0 12 13 16 28
10 16 -6 33 0 38 13 12 33 -79 36 -106 4z"/>
<path d="M4300 6538 c0 -10 -16 -18 -35 -19 -115 -2 -106 -92 11 -111 14 -3
48 -19 74 -36 60 -39 63 -39 78 -1 6 18 3 26 -8 19 -11 -7 -20 -3 -20 8 0 11
-13 16 -30 9 -21 -8 -30 2 -30 32 0 24 -9 38 -20 31 -11 -7 -20 3 -20 21 0 24
12 31 40 23 22 -6 40 -3 40 6 0 8 -18 20 -40 26 -22 6 -40 2 -40 -8z"/>
<path d="M3989 6513 c-23 -26 -15 -93 11 -93 27 0 35 26 22 73 -9 31 -18 37
-33 20z"/>
<path d="M4511 6489 c-37 -28 -36 -29 16 -29 37 0 53 -9 49 -29 -3 -15 3 -29
14 -30 31 -4 37 82 7 101 -35 23 -40 22 -86 -13z"/>
<path d="M4532 6288 c-17 -45 -16 -48 20 -34 29 11 29 6 7 -36 -22 -42 -22
-45 5 -23 16 13 36 19 43 11 7 -7 3 16 -9 50 -24 70 -47 81 -66 32z"/>
<path d="M4640 6160 c0 -23 -9 -37 -20 -30 -11 7 -20 -6 -20 -29 0 -22 -7 -42
-15 -43 -137 -15 -191 -32 -176 -57 21 -33 228 -10 274 31 23 21 47 38 54 38
11 0 7 94 -4 102 -41 32 -93 25 -93 -12z"/>
<path d="M4903 10066 c-29 -6 -42 -19 -36 -36 6 -15 0 -31 -13 -35 -13 -5 5
-24 41 -42 65 -34 87 -73 40 -73 -17 0 -26 -36 -28 -105 -2 -87 2 -97 19 -60
11 25 32 45 46 45 14 0 32 11 40 23 10 16 4 20 -18 11 -18 -7 -38 -4 -45 7
-15 24 41 82 61 63 9 -8 0 10 -19 40 -19 30 -28 64 -21 76 7 12 3 35 -11 51
-32 39 -4 37 36 -3 27 -27 27 -34 3 -50 -15 -9 -23 -18 -18 -19 6 -1 32 -6 58
-11 l48 -9 -50 65 c-54 70 -64 74 -133 62z"/>
<path d="M5510 7863 c3 -36 20 -117 53 -268 23 -105 81 -137 71 -39 -4 31 -12
64 -18 75 -6 10 -23 70 -37 133 -22 103 -77 180 -69 99z"/>
<path d="M5873 5880 c-39 -66 -29 -100 54 -177 l50 -48 -11 48 c-7 26 -20 58
-31 71 -10 13 -12 35 -4 48 10 15 7 19 -8 10 -13 -8 -23 -5 -23 6 0 11 9 25
20 32 24 15 27 70 4 70 -8 0 -31 -27 -51 -60z"/>
<path d="M6346 5700 c-16 -57 -13 -72 12 -82 44 -18 45 -14 25 74 l-17 78 -20
-70z"/>
<path d="M5840 5220 c-26 -49 -2 -78 98 -119 37 -16 90 -49 118 -75 53 -49 84
-59 84 -26 0 11 -9 20 -20 20 -11 0 -20 14 -20 30 0 17 -16 30 -35 31 -19 0
-62 27 -94 60 -32 33 -70 56 -83 51 -15 -6 -20 5 -13 29 13 51 -8 50 -35 -1z"/>
<path d="M6160 5202 c0 -10 -6 -33 -12 -51 -9 -22 -4 -28 17 -20 18 7 35 -3
43 -24 12 -31 17 -32 33 -6 26 42 23 59 -11 59 -16 0 -30 14 -30 30 0 17 -9
30 -20 30 -11 0 -20 -8 -20 -18z"/>
<path d="M6180 5011 c0 -27 -9 -54 -20 -61 -28 -17 -5 -50 33 -50 19 0 27 11
20 29 -6 17 -3 35 8 42 30 18 22 89 -11 89 -18 0 -30 -19 -30 -49z"/>
<path d="M6138 4806 c-36 -102 -38 -145 -7 -133 24 10 61 182 42 200 -5 5 -21
-25 -35 -67z"/>
<path d="M6223 4568 c-14 -61 -21 -116 -16 -122 14 -14 57 72 45 92 -6 9 -3
45 7 79 10 35 12 63 4 63 -8 0 -26 -50 -40 -112z"/>
<path d="M6078 4570 c-1 -11 -1 -28 1 -38 2 -10 -7 -25 -20 -33 -17 -10 -18
-24 -2 -52 21 -35 22 -34 22 6 1 24 11 47 24 51 18 6 18 18 1 47 -13 21 -24
30 -26 19z"/>
<path d="M7655 4412 c-48 -36 -44 -52 15 -52 37 0 50 11 50 40 0 46 -16 49
-65 12z"/>
<path d="M6163 4348 c-16 -46 -21 -102 -13 -128 10 -33 7 -42 -13 -36 -18 6
-37 -29 -60 -112 -19 -67 -40 -141 -47 -164 -11 -36 -5 -43 37 -43 34 0 46 9
39 27 -5 15 -18 23 -28 17 -24 -15 -23 -1 4 58 13 27 42 55 65 61 30 8 35 17
19 28 -16 10 -18 25 -5 45 10 16 19 66 19 112 0 60 10 86 34 96 23 9 27 18 13
27 -12 8 -26 32 -30 54 -5 29 -15 17 -34 -42z"/>
<path d="M6940 4281 c0 -21 -17 -44 -38 -50 -46 -15 -70 -64 -31 -64 15 0 25
9 23 21 -2 12 12 21 31 19 26 -2 35 12 35 55 0 32 -4 58 -10 58 -5 0 -10 -17
-10 -39z"/>
<path d="M5974 4253 c-18 -46 16 -80 44 -45 25 30 15 72 -17 72 -9 0 -21 -12
-27 -27z"/>
<path d="M7540 4231 c0 -39 73 -79 91 -50 7 12 -4 34 -24 50 -48 36 -67 36
-67 0z"/>
<path d="M7667 3910 c-7 -18 -2 -56 11 -84 l24 -52 42 46 c32 34 37 53 22 78
-28 45 -84 52 -99 12z"/>
<path d="M5876 3840 c-30 -73 -56 -169 -54 -198 0 -18 11 -5 23 28 11 33 29
65 40 72 10 7 15 38 10 70 -5 38 -12 48 -19 28z"/>
<path d="M7020 3780 c-42 -42 -52 -90 -22 -109 9 -6 28 16 42 49 14 33 32 55
42 49 10 -6 12 3 6 20 -16 40 -20 39 -68 -9z"/>
<path d="M6831 3753 c-26 -19 -33 -39 -22 -65 10 -25 19 -29 25 -13 5 14 21
25 35 25 15 0 31 18 37 40 12 47 -21 52 -75 13z"/>
<path d="M5963 3689 c-31 -69 -11 -97 35 -51 21 21 54 47 75 58 20 12 30 27
22 35 -8 8 -26 5 -41 -8 -18 -15 -34 -15 -47 -2 -13 13 -28 3 -44 -32z"/>
<path d="M6603 3725 c-99 -5 -124 -13 -116 -35 6 -16 3 -34 -8 -41 -10 -6 -19
-20 -19 -32 0 -11 14 -6 31 12 18 17 47 32 65 33 94 7 204 39 204 60 0 10 -7
16 -15 14 -8 -2 -72 -7 -142 -11z"/>
<path d="M6185 3673 c-47 -11 -85 -28 -85 -37 0 -29 134 -17 160 14 14 17 33
30 42 30 10 0 18 -13 18 -30 0 -45 54 -36 66 10 12 46 -50 50 -201 13z"/>
<path d="M6994 3605 c-5 -8 -6 -30 -3 -49 3 -22 -15 -41 -53 -54 -77 -26 -73
-36 10 -26 62 7 68 13 68 76 0 68 -6 82 -22 53z"/>
<path d="M6630 3429 l-100 -27 105 9 c122 12 234 47 145 46 -27 -1 -95 -13
-150 -28z"/>
<path d="M6871 3178 c8 -12 2 -30 -13 -40 -23 -14 -22 -23 7 -52 33 -32 35
-32 35 0 0 19 11 34 25 34 17 1 15 7 -5 20 -20 13 -22 19 -5 20 14 0 25 9 25
20 0 11 -19 20 -41 20 -25 0 -36 -9 -28 -22z"/>
<path d="M7354 2884 c-97 -8 -88 -40 25 -97 47 -24 95 -53 106 -64 11 -11 46
-16 77 -10 46 10 66 0 109 -51 29 -34 60 -62 69 -62 10 0 43 -10 74 -23 31
-13 63 -22 72 -20 8 2 43 -11 77 -28 69 -36 157 -24 157 21 0 17 -17 30 -39
30 -21 0 -44 9 -51 20 -7 11 -64 44 -126 73 -63 30 -118 60 -124 68 -14 20
-181 94 -251 110 -32 8 -68 20 -79 27 -11 7 -54 9 -96 6z"/>
<path d="M8154 2517 c-14 -53 -2 -77 39 -77 20 0 28 16 23 53 -8 68 -47 83
-62 24z"/>
<path d="M1130 3260 c-5 -8 20 -26 55 -40 92 -34 160 -62 197 -81 18 -8 76
-22 130 -29 l98 -13 -60 42 c-81 56 -402 149 -420 121z"/>
<path d="M1105 3046 c-50 -19 -23 -46 45 -46 44 0 70 10 70 26 0 26 -69 38
-115 20z"/>
<path d="M5470 2660 c-7 -11 12 -29 41 -41 30 -11 79 -38 109 -59 50 -36 80
-35 80 1 0 37 -212 128 -230 99z"/>
<path d="M5734 2555 c-13 -36 22 -95 57 -95 16 0 29 -8 29 -18 0 -10 16 -16
35 -15 23 2 33 -9 29 -32 -3 -19 6 -35 20 -35 15 0 52 -23 83 -52 30 -29 61
-47 67 -40 7 6 23 -4 37 -23 15 -20 33 -27 42 -17 10 10 6 21 -8 26 -14 5 -25
22 -25 37 0 17 -12 23 -31 16 -21 -8 -35 2 -42 30 -7 23 -20 38 -29 32 -34
-21 -62 13 -37 43 18 21 18 28 0 28 -14 0 -61 32 -106 70 -90 76 -107 83 -121
45z"/>
<path d="M5460 2442 c0 -11 9 -25 20 -32 28 -17 25 -45 -5 -56 -14 -5 -1 -6
29 -2 30 4 79 -7 110 -23 31 -16 66 -29 77 -29 12 0 47 -27 79 -60 32 -33 70
-60 86 -60 17 0 24 -12 17 -30 -7 -16 -3 -30 8 -30 10 0 19 -9 19 -20 0 -11
-13 -20 -30 -20 -16 0 -30 -10 -30 -21 0 -12 9 -16 20 -9 11 7 20 5 20 -5 0
-9 19 -18 42 -20 34 -2 37 2 17 26 -17 21 -18 29 -1 29 13 0 32 -22 42 -50 21
-55 60 -68 60 -19 0 31 82 74 100 51 17 -21 117 -13 142 12 18 18 14 21 -19
13 -24 -7 -43 -2 -43 9 0 11 -18 16 -40 10 -22 -6 -40 -2 -40 8 0 11 -25 16
-55 11 -41 -6 -73 9 -127 59 -171 158 -233 204 -308 226 -146 44 -190 51 -190
32z"/>
<path d="M6367 2359 c-12 -12 -36 -24 -52 -26 -39 -6 -95 -52 -95 -78 0 -11
18 -15 40 -9 52 13 51 0 -5 -49 -45 -39 -45 -39 -1 -18 24 11 66 21 94 21 28
0 59 16 70 36 17 31 11 36 -39 32 l-59 -4 41 58 c42 59 45 76 6 37z"/>
<path d="M5364 2158 c13 -40 171 -71 216 -43 19 13 52 18 73 13 21 -6 60 -2
86 8 36 13 -4 19 -147 21 -109 2 -206 9 -217 16 -11 7 -16 0 -11 -15z"/>
<path d="M5755 2086 c-31 -5 -55 -21 -55 -37 0 -39 20 -36 80 11 28 22 46 38
40 37 -5 -2 -35 -7 -65 -11z"/>
<path d="M5272 2043 c-8 -13 -34 -23 -58 -24 l-44 0 47 -40 c88 -73 172 -40
106 42 -25 31 -41 38 -51 22z"/>
<path d="M6107 2010 c-6 -16 -24 -30 -39 -30 -15 0 -28 -9 -28 -21 0 -13 30
-17 75 -11 41 6 57 5 35 -1 -22 -6 -47 -17 -56 -26 -19 -18 108 -1 136 18 11
8 59 26 106 41 47 15 91 34 96 44 15 23 -65 20 -156 -8 -62 -18 -88 -18 -118
1 -32 19 -41 18 -51 -7z"/>
<path d="M7480 2116 c0 -40 9 -79 20 -86 26 -16 26 90 0 130 -14 22 -19 11
-20 -44z"/>
<path d="M8091 2022 c-38 -15 -31 -25 33 -48 25 -9 31 -4 22 19 -9 24 5 21 66
-12 43 -22 90 -41 105 -41 49 0 -12 55 -73 65 -30 5 -67 14 -84 21 -16 6 -47
4 -69 -4z"/>
<path d="M7473 1726 c-33 -33 59 -286 103 -286 22 0 23 -7 7 -27 -27 -32 -10
-53 42 -53 28 0 36 9 27 32 -7 17 -18 56 -24 85 -20 90 -57 163 -81 163 -13 0
-19 17 -14 37 10 36 -36 73 -60 49z"/>
<path d="M7280 1569 c0 -56 98 -186 120 -159 14 16 17 30 8 30 -9 0 -5 11 8
24 33 33 30 56 -7 56 -18 0 -45 14 -62 30 -29 30 -67 40 -67 19z"/>
<path d="M7633 1327 c-21 -21 -15 -51 7 -37 22 14 26 -6 22 -114 -1 -40 7 -79
18 -86 11 -7 16 -21 10 -30 -6 -9 -2 -23 8 -29 11 -6 25 -3 31 7 6 11 3 25 -9
32 -29 18 -25 50 7 50 18 0 23 19 17 62 -6 38 1 69 16 78 18 11 13 19 -18 29
-23 8 -37 22 -31 32 13 21 -57 26 -78 6z"/>
<path d="M3195 7504 c-57 -12 -40 -88 36 -169 65 -68 129 -104 99 -55 -7 11 0
20 16 20 33 0 95 -54 126 -110 12 -22 37 -43 54 -46 28 -6 -20 245 -50 265
-82 54 -163 87 -188 77 -18 -6 -38 -3 -45 7 -7 10 -29 15 -48 11z"/>
<path d="M4730 5100 c-6 -10 -61 -52 -121 -91 -119 -80 -140 -117 -54 -98 144
33 265 111 265 172 0 39 -68 53 -90 17z"/>
<path d="M4104 4913 c-24 -26 -43 -83 -49 -143 -13 -142 -83 -242 -180 -258
-57 -9 -86 -29 -115 -76 -46 -77 -40 -90 25 -48 26 18 54 26 62 19 7 -8 13 10
13 40 0 55 63 77 91 32 7 -11 30 -15 51 -8 26 8 42 0 50 -25 6 -20 19 -54 28
-76 15 -36 37 -116 51 -185 3 -14 -8 -25 -24 -25 -16 0 -24 -9 -17 -20 7 -11
3 -20 -9 -20 -12 0 -31 -22 -41 -50 -11 -29 -35 -50 -56 -50 -26 0 -37 -14
-36 -45 2 -34 -8 -44 -40 -41 -35 4 -41 -4 -33 -45 6 -29 0 -49 -14 -49 -13 0
-17 10 -10 22 9 14 0 19 -24 15 -50 -10 -49 -69 1 -60 35 6 35 3 6 -25 -17
-18 -43 -33 -58 -33 -14 -1 -4 -10 22 -21 26 -10 67 -12 90 -5 78 27 101 25
138 -9 35 -31 39 -31 63 1 14 19 36 35 49 35 14 0 19 8 13 19 -7 11 -36 11
-72 1 -94 -27 -153 33 -93 93 8 8 37 63 65 122 28 59 70 126 93 149 36 36 40
57 29 158 -7 65 -4 140 7 168 18 46 15 50 -39 50 -32 0 -61 -10 -65 -21 -4
-12 -23 -15 -42 -8 -33 13 -33 16 3 46 20 18 42 60 48 93 27 143 79 251 115
240 61 -20 61 41 -1 64 -48 18 -62 15 -95 -21z"/>
<path d="M4517 4843 c-95 -23 -173 -111 -188 -213 -15 -103 -3 -129 47 -97 25
16 39 14 55 -8 55 -75 149 55 114 156 -24 66 -10 115 36 129 22 7 39 21 39 31
0 21 -22 21 -103 2z"/>
<path d="M1355 4544 c-19 -4 -35 -15 -35 -25 0 -11 -15 -19 -33 -19 -24 0 -13
-20 39 -72 47 -48 83 -69 105 -61 38 15 29 86 -10 77 -14 -3 -22 6 -16 20 16
43 -12 88 -50 80z"/>
<path d="M4706 4514 c-35 -24 -69 -64 -75 -89 -7 -25 -21 -45 -31 -45 -11 0
-20 -17 -20 -38 0 -21 -18 -42 -42 -48 -25 -7 -36 -21 -28 -34 8 -13 27 -18
43 -12 16 7 24 3 18 -7 -6 -10 2 -31 19 -48 37 -38 39 -73 2 -73 -15 0 -38
-13 -52 -30 -14 -16 -41 -30 -60 -30 -20 0 -41 -13 -47 -30 -7 -16 -25 -30
-41 -30 -16 0 -32 -9 -35 -19 -4 -11 -19 -13 -33 -4 -19 12 -20 30 -5 71 36
94 27 236 -14 228 -19 -3 -38 -27 -41 -51 -4 -25 -15 -45 -25 -45 -10 0 -13
-27 -6 -60 10 -48 6 -58 -17 -49 -25 9 -28 -3 -18 -65 l13 -76 119 0 c111 0
121 4 127 47 5 35 16 44 45 37 24 -6 38 0 38 17 0 84 150 73 167 -13 9 -42 24
-58 54 -58 23 0 36 9 29 20 -7 11 2 40 19 64 53 76 5 136 -110 136 -49 0 -50
29 -1 78 38 38 37 130 0 153 -28 18 -21 69 10 69 15 0 49 18 75 39 66 55 5 51
-77 -5z"/>
<path d="M2274 4430 c-16 -97 5 -210 39 -210 35 0 35 78 0 92 -20 7 -25 35
-18 99 12 105 -5 120 -21 19z"/>
<path d="M4394 4425 c-26 -6 -35 -23 -30 -62 8 -74 117 -87 164 -20 36 52 26
74 -18 37 -25 -20 -30 -19 -30 5 0 35 -34 51 -86 40z"/>
<path d="M3740 4344 c-99 -13 -143 -144 -49 -144 74 0 39 -40 -37 -42 -35 -2
-48 -7 -29 -12 53 -14 43 -53 -35 -137 -38 -42 -70 -97 -70 -122 0 -26 -18
-55 -42 -68 -62 -33 -19 -66 51 -39 46 17 54 30 47 77 -11 74 38 125 74 76 23
-31 28 -30 77 8 63 50 67 71 14 85 -66 17 -43 89 33 103 58 11 64 18 46 51
-14 26 -13 42 1 51 12 7 17 25 11 40 -5 14 1 31 14 36 14 6 10 11 -9 11 -19 1
-37 9 -40 17 -4 8 -29 12 -57 9z"/>
<path d="M4007 4325 c-69 -56 -85 -160 -17 -110 30 22 95 145 76 145 -9 -1
-35 -16 -59 -35z"/>
<path d="M1221 4225 c48 -64 144 -145 172 -145 15 0 27 -10 27 -22 0 -13 18
-18 39 -12 22 5 43 -1 48 -13 6 -17 14 -17 32 -1 18 17 17 30 -7 53 -16 17
-25 36 -18 43 7 6 -11 12 -41 12 -29 0 -53 11 -53 25 -1 17 -7 15 -20 -5 -17
-25 -29 -19 -78 35 -62 70 -150 96 -101 30z"/>
<path d="M4420 3867 c0 -5 29 -22 65 -37 l65 -28 -89 -1 c-82 -1 -86 -3 -50
-30 37 -28 36 -30 -21 -31 -46 0 -53 -5 -30 -20 27 -17 27 -20 0 -22 -16 -1 1
-9 38 -18 87 -21 120 -8 107 41 -5 22 0 39 13 39 12 0 22 -9 22 -20 0 -12 18
-12 52 1 61 23 111 69 94 87 -7 6 2 12 21 12 119 0 2 31 -127 33 -88 2 -160
-1 -160 -6z"/>
<path d="M4249 3829 c43 -32 91 -38 91 -11 0 9 -20 23 -45 29 -72 20 -88 14
-46 -18z"/>
<path d="M4178 3713 c-67 -36 -156 -52 -169 -31 -6 9 -24 11 -40 5 -23 -9 -25
-18 -7 -39 29 -35 93 -35 158 1 31 17 58 21 72 9 21 -17 108 39 108 69 0 22
-68 14 -122 -14z"/>
<path d="M3655 3686 c-31 -5 -50 -18 -44 -28 7 -11 1 -33 -12 -49 -14 -17 -18
-36 -11 -44 8 -8 22 -1 32 14 14 23 23 24 48 3 26 -22 35 -18 54 25 13 29 31
47 40 42 8 -5 21 -1 28 11 7 11 4 20 -7 20 -11 0 -32 3 -46 7 -15 4 -52 3 -82
-1z"/>
<path d="M3120 3621 c0 -21 9 -44 20 -51 11 -7 20 -33 20 -59 0 -26 14 -52 32
-59 19 -7 27 -25 20 -43 -6 -17 -3 -26 7 -20 10 7 21 -18 25 -54 4 -40 16 -63
32 -60 14 3 24 -6 21 -20 -10 -53 27 -155 56 -155 16 0 43 -13 60 -30 23 -23
24 -30 3 -30 -19 -1 -18 -6 4 -20 26 -17 25 -19 -5 -20 -47 0 -44 -17 9 -64
42 -36 46 -37 70 -3 31 42 33 67 6 67 -11 0 -20 16 -20 35 0 19 -41 107 -90
195 -49 88 -122 221 -162 295 -74 137 -108 167 -108 96z"/>
<path d="M3560 3489 l-49 -49 52 0 c29 0 82 -6 118 -13 45 -9 61 -6 52 9 -8
12 6 33 31 46 44 24 44 25 6 40 -77 30 -159 17 -210 -33z"/>
<path d="M2967 3355 c7 -25 13 -61 13 -81 0 -34 2 -34 33 -4 26 26 28 42 10
81 -28 62 -72 65 -56 4z"/>
<path d="M2311 3055 c-27 -92 -51 -223 -60 -332 -6 -75 -22 -137 -38 -150 -18
-14 -33 -80 -40 -173 -6 -82 -20 -152 -31 -156 -13 -4 -13 -24 -2 -55 11 -28
11 -52 1 -59 -19 -11 -20 -21 -21 -158 -1 -90 16 -120 33 -56 6 24 20 39 30
32 10 -6 12 -19 6 -29 -6 -11 -2 -19 10 -19 11 0 21 4 21 9 0 5 28 138 62 295
79 360 82 382 83 516 0 202 -7 269 -31 284 -18 12 -18 15 1 16 14 0 25 14 25
30 0 36 -38 40 -49 5z"/>
<path d="M2552 2943 c-6 -10 -2 -47 8 -83 10 -36 14 -73 9 -82 -6 -9 8 -28 30
-42 44 -28 60 -182 21 -206 -37 -23 -22 -90 20 -90 42 0 47 23 40 195 -2 49 6
85 18 85 12 0 22 23 22 51 0 28 -8 47 -17 41 -9 -6 -29 25 -43 69 -25 75 -80
107 -108 62z"/>
<path d="M3567 2855 c-27 -43 -26 -83 3 -127 20 -31 21 -49 5 -65 -15 -15 -7
-27 32 -42 29 -11 53 -29 53 -41 0 -11 11 -18 25 -15 13 3 27 -16 31 -41 4
-26 20 -51 35 -57 16 -6 24 -18 19 -27 -5 -8 5 -28 23 -43 26 -21 35 -22 42
-2 20 59 45 17 45 -75 0 -55 8 -100 18 -100 10 0 25 -36 32 -80 7 -44 21 -80
30 -80 10 0 20 -13 24 -29 4 -22 14 -25 36 -10 26 17 26 22 -4 40 -27 16 -31
31 -16 69 17 44 -19 165 -42 141 -4 -4 -8 23 -8 60 0 41 14 77 35 93 32 24 31
28 -13 48 -40 19 -47 18 -38 -6 8 -20 -2 -26 -39 -21 -58 7 -119 52 -104 76 5
9 0 22 -12 30 -12 7 -30 32 -40 56 -35 79 -102 183 -133 207 -16 13 -24 33
-17 45 7 11 9 21 3 21 -5 0 -17 -11 -25 -25z"/>
<path d="M2860 2625 c1 -91 23 -148 53 -137 17 7 27 -4 27 -29 0 -64 42 -99
77 -65 21 21 23 34 6 51 -17 17 -23 16 -24 -6 0 -16 -12 -2 -27 31 -14 33 -21
76 -16 96 5 20 -10 52 -37 75 -58 50 -59 50 -59 -16z"/>
<path d="M3280 2400 c0 -11 20 -21 45 -23 25 -2 57 -4 72 -5 53 -4 114 -132
63 -132 -11 0 -20 11 -20 25 0 14 -20 38 -45 53 -40 25 -42 25 -20 -2 13 -16
19 -35 13 -41 -26 -27 74 -58 104 -33 36 30 28 110 -10 102 -18 -4 -24 8 -16
35 9 37 1 41 -88 41 -54 0 -98 -9 -98 -20z"/>
<path d="M1365 2384 c-49 -5 -65 -16 -65 -45 0 -22 -13 -39 -30 -39 -16 0 -30
-9 -30 -20 0 -33 38 -22 63 18 13 21 34 35 46 31 21 -8 106 46 90 56 -5 3 -38
2 -74 -1z"/>
<path d="M2558 2345 c11 -19 25 -53 32 -74 11 -37 14 -36 37 10 21 41 20 53
-6 73 -48 38 -85 33 -63 -9z"/>
<path d="M3236 2315 c-8 -19 -33 -35 -55 -35 -27 0 -36 -9 -28 -30 6 -16 28
-30 50 -30 30 0 35 -10 26 -47 -9 -35 0 -54 35 -76 50 -32 116 -27 116 8 0 12
6 16 12 9 7 -7 26 1 43 18 16 16 23 36 15 44 -9 8 -19 3 -24 -11 -30 -84 -162
-3 -170 105 -4 55 -10 69 -20 45z"/>
<path d="M1035 2203 c-193 -103 -365 -219 -349 -236 6 -6 32 8 56 31 71 65 93
49 27 -19 -32 -34 -59 -72 -60 -85 0 -13 -11 -46 -23 -74 -13 -27 -39 -93 -59
-145 -21 -52 -44 -95 -53 -95 -9 0 -11 -9 -5 -19 7 -10 1 -61 -12 -113 -17
-70 -17 -103 0 -130 12 -20 28 -73 35 -117 9 -52 24 -81 43 -81 23 0 27 -16
16 -70 -8 -46 -5 -70 9 -70 12 0 16 -11 8 -25 -8 -14 -7 -18 3 -9 18 17 14
150 -6 182 -6 10 -14 50 -18 90 -3 39 -15 75 -26 78 -25 9 -28 204 -4 204 10
0 23 46 30 102 6 57 32 144 57 195 25 51 42 107 39 123 -4 17 0 24 7 16 17
-16 79 40 96 89 7 19 27 35 43 35 17 0 31 9 31 20 0 11 12 20 27 20 34 0 273
160 273 183 0 9 -2 16 -5 15 -3 -2 -84 -45 -180 -95z"/>
<path d="M2942 2173 c36 -79 148 -101 151 -30 3 65 -4 69 -47 26 -28 -28 -34
-27 -60 10 -39 56 -70 52 -44 -6z"/>
<path d="M2860 2081 c0 -11 10 -21 23 -21 13 0 3 -17 -21 -38 l-43 -38 55 -19
c55 -19 56 -17 56 53 0 52 -10 73 -35 78 -19 4 -35 -3 -35 -15z"/>
<path d="M971 1997 c-59 -143 -88 -314 -59 -352 24 -32 27 -29 27 26 1 34 19
132 42 218 43 166 39 223 -10 108z"/>
<path d="M1095 2010 c-29 -135 -37 -227 -19 -238 11 -6 26 29 33 79 7 49 21
85 31 79 9 -6 23 -2 30 10 7 11 -1 20 -17 20 -18 0 -33 23 -37 55 l-7 55 -14
-60z"/>
<path d="M3040 2043 c1 -32 37 -65 75 -68 26 -2 38 -14 32 -34 -5 -17 6 -11
24 14 19 25 44 45 56 45 13 0 10 -9 -7 -20 -26 -17 -25 -19 4 -20 59 0 60 38
2 50 -31 7 -85 19 -121 29 -36 9 -65 11 -65 4z"/>
<path d="M2727 1879 c-30 -111 48 -203 141 -167 44 17 19 48 -38 48 -31 0 -53
15 -63 45 -17 50 -17 48 2 110 8 25 6 45 -4 45 -9 0 -27 -37 -38 -81z"/>
<path d="M2894 1908 c13 -6 19 -23 13 -38 -7 -19 2 -24 31 -16 34 8 42 1 44
-37 0 -26 6 -36 11 -22 6 14 27 25 47 25 28 0 60 36 60 67 0 1 -25 3 -55 3
-30 1 -82 7 -115 15 -33 7 -49 9 -36 3z"/>
<path d="M2073 1887 c-42 -43 -12 -187 39 -187 43 0 51 8 42 40 -6 22 -1 40
11 40 12 0 16 6 9 13 -7 7 -3 31 8 55 17 35 13 33 -22 -8 -24 -27 -37 -37 -28
-22 10 21 6 25 -17 17 -24 -10 -30 -3 -25 26 8 42 5 47 -17 26z"/>
<path d="M6291 1077 c9 -49 115 -145 126 -115 4 12 18 10 35 -4 15 -12 28 -15
28 -5 0 10 -40 40 -89 66 -49 27 -84 55 -79 64 5 8 0 20 -11 26 -11 7 -15 -7
-10 -32z"/>
<path d="M4543 1073 c-2 -20 -21 -41 -43 -47 -22 -6 -40 -27 -40 -48 0 -21 -8
-38 -17 -38 -9 0 -18 -33 -19 -72 -2 -40 -11 -83 -22 -95 -10 -13 -21 -122
-24 -243 -3 -121 -14 -231 -24 -245 -16 -22 -12 -85 14 -215 5 -22 9 -47 10
-55 1 -8 24 -15 50 -15 l48 0 -9 355 c-5 195 -12 370 -16 389 -4 19 2 37 13
41 11 3 28 50 38 104 10 55 28 105 40 112 12 8 17 35 12 61 -6 33 -9 36 -11
11z"/>
<path d="M4574 904 c-67 -70 -77 -217 -17 -271 68 -62 190 -31 223 58 11 27
35 49 56 49 20 0 54 13 75 29 36 28 32 30 -53 30 -86 1 -93 -3 -93 -50 0 -114
-87 -155 -169 -79 -94 87 -22 291 92 259 33 -9 36 -7 12 9 -46 33 -68 27 -126
-34z"/>
<path d="M4619 819 c-47 -47 -28 -78 46 -79 19 0 35 -9 35 -20 0 -11 -16 -21
-35 -22 -22 -1 -25 -5 -9 -11 31 -13 84 28 84 65 0 20 -17 24 -63 14 -48 -9
-60 -6 -53 16 6 18 31 25 68 21 32 -4 54 -3 48 1 -5 4 -25 19 -44 33 -28 22
-40 19 -77 -18z"/>
</g>
</svg>
